<?xml version="1.0" encoding="UTF-8" standalone="no"?><!DOCTYPE svg PUBLIC "-//W3C//DTD SVG 1.1//EN" "http://www.w3.org/Graphics/SVG/1.1/DTD/svg11.dtd"><svg width="100%" height="100%" viewBox="0 0 144 75" version="1.1" xmlns="http://www.w3.org/2000/svg" xmlns:xlink="http://www.w3.org/1999/xlink" xml:space="preserve" xmlns:serif="http://www.serif.com/" style="fill-rule:evenodd;clip-rule:evenodd;stroke-linejoin:round;stroke-miterlimit:1.41421;"><path d="M23.982,44.088l24.618,-2.513l-1.696,-2.907l-4.249,0.785l3.397,-1.556l-1.702,-2.514l-20.368,8.705Z" style="fill:#d6d6db;fill-rule:nonzero;"/><path d="M58.384,53.181c0,0 64.585,-20.329 65.077,-21.504c0.494,-1.176 -1.776,-2.59 -6.364,-1.587c-4.583,1.012 -37.785,4.767 -37.785,4.767l-3.441,3.375l35.876,-4.711l-43.906,13.614l8.03,-8.903l17.041,-16.972c0,0 -4.1,-1.011 -5.902,0.17c-1.808,1.173 -21.745,7.724 -21.745,7.724l-0.167,2.524l14.214,-5.211l-9.176,9.412l-5.367,0.838l-0.162,2.516l2.251,-0.336l-2.089,2.422l-0.162,6.826l-6.223,5.036Z" style="fill:#d6d6db;fill-rule:nonzero;"/><path d="M59.872,32.16l5.609,-3.648l-0.702,20.28l-5.731,4.362l0.824,-20.994Z" style="fill:#cbc3c0;fill-rule:nonzero;"/><path d="M59.986,32.229l-0.808,20.675l5.486,-4.178l0.69,-19.995l-5.368,3.498Zm-1.061,21.169l0.008,-0.251l0.824,-21.054l0.051,-0.033l5.797,-3.778l-0.007,0.23l-0.703,20.342l-0.046,0.035l-5.924,4.509Z" style="fill:#cbc3c0;fill-rule:nonzero;"/><path d="M43.588,28.002l5.692,-3.62l6.144,8.415l-0.338,10.646l-11.498,-15.441Z" style="fill:#cbc3c0;fill-rule:nonzero;"/><path d="M26.07,23.631l5.801,-3.382l-0.11,10.724l-5.477,5.12l-0.214,-12.462Z" style="fill:#cbc3c0;fill-rule:nonzero;"/><path d="M26.191,23.703l0.206,12.123l5.248,-4.911l0.106,-10.453l-5.56,3.241Zm-0.016,12.66l-0.224,-12.805l6.039,-3.515l-0.11,10.98l-0.039,0.038l-5.666,5.302Z" style="fill:#cbc3c0;fill-rule:nonzero;"/><path d="M41.46,32.296l-0.997,-1.497l-15.165,12.852l7.089,-3.132l9.073,-8.223Z" style="fill:#cbc3c0;fill-rule:nonzero;"/><path d="M40.44,30.973l-14.429,12.228l6.311,-2.782l8.978,-8.138l-0.86,-1.308Zm-15.094,12.79l-0.122,-0.207l15.265,-12.94l1.128,1.702l-9.186,8.315l-7.085,3.13Z" style="fill:#cbc3c0;fill-rule:nonzero;"/><path d="M21.521,22.299l0.281,19.169c0,0 1.093,3.334 3.496,2.183l15.005,-12.733l16.637,22.362c0,0 3.068,0.924 2.63,-2.173l0.655,-19.042l-4.928,-1.265l-0.215,12.615l-11.494,-15.485l-6.463,-1.832l-10.84,9.747l-0.215,-12.273l-4.549,-1.273Z" style="fill:#938379;fill-rule:nonzero;"/><path d="M57.009,53.173c0.109,0.032 0.468,0.116 0.871,0.116c0.58,0 1.013,-0.167 1.282,-0.488c0.299,-0.359 0.397,-0.924 0.29,-1.678l0.653,-18.964l-4.694,-1.201l-0.218,12.807l-0.202,-0.274l-11.47,-15.451l-6.367,-1.81l-10.981,9.878l-0.218,-12.442l-4.315,-1.207l0.28,18.99c0.075,0.214 0.856,2.319 2.402,2.319c0.29,0 0.599,-0.073 0.915,-0.223l15.083,-12.802l16.689,22.43Zm0.871,0.361c-0.522,0 -0.955,-0.127 -0.973,-0.135l-0.037,-0.01l-0.024,-0.033l-16.562,-22.267l-14.936,12.674c-0.349,0.162 -0.698,0.251 -1.027,0.251c-1.786,0 -2.596,-2.401 -2.63,-2.505l-0.007,-0.038l-0.285,-19.334l4.788,1.345l0.003,0.089l0.206,12.012l10.697,-9.615l6.564,1.857l0.022,0.029l11.292,15.211l0.212,-12.415l5.165,1.318l-0.664,19.144c0.118,0.802 0,1.428 -0.343,1.847c-0.313,0.373 -0.816,0.575 -1.461,0.575" style="fill:#938379;fill-rule:nonzero;"/><path d="M23.882,0.835l7.909,0.118l13.322,18.527l-4.655,4.374l-16.576,-23.019Z" style="fill:#a1a2a9;fill-rule:nonzero;"/><path d="M24.118,0.966l16.357,22.708l4.482,-4.209l-13.223,-18.393l-7.616,-0.106Zm16.322,23.067l-0.076,-0.107l-16.721,-23.211l8.209,0.119l0.034,0.045l13.384,18.619l-0.077,0.073l-4.753,4.462Z" style="fill:#a1a2a9;fill-rule:nonzero;"/><path d="M57.515,8.651l5.94,-2.83c0,0 2.425,0.253 2.762,2.585l-0.838,20.198l-5.187,3.492l0.424,-21.28c0,0.002 -1.593,-2.249 -3.101,-2.165" style="fill:#a1a2a9;fill-rule:nonzero;"/><path d="M57.972,8.567c1.388,0.295 2.678,2.092 2.735,2.176l0.026,0.033l0,0.042l-0.419,21.049l4.949,-3.335l0.839,-20.128c-0.298,-2.055 -2.355,-2.414 -2.627,-2.456l-5.503,2.619Zm2.099,23.751l0,-0.225l0.424,-21.239c-0.2,-0.273 -1.642,-2.165 -2.973,-2.08l-0.057,-0.232l5.971,-2.84l0.03,0.001c0.027,0.002 2.524,0.29 2.868,2.687l-0.84,20.281l-5.423,3.647Z" style="fill:#a1a2a9;fill-rule:nonzero;"/><path d="M25.559,23.802l6.662,-3.455l0,-1.025l-6.467,-7.844l-0.195,12.324Z" style="fill:#a1a2a9;fill-rule:nonzero;"/><path d="M25.865,11.802l-0.189,11.804l6.422,-3.334l0,-0.906l-6.233,-7.564Zm-0.427,12.2l0.002,-0.2l0.198,-12.647l6.695,8.122l0,1.146l-6.895,3.579Z" style="fill:#a1a2a9;fill-rule:nonzero;"/><path d="M43.727,27.979l4.948,-3.061l7.042,-6.877l-11.99,9.938Z" style="fill:#acadb3;fill-rule:nonzero;"/><path d="M53.535,20.011l-8.388,6.953l3.469,-2.15l4.919,-4.803Zm-9.748,8.075l-0.13,-0.2l11.991,-9.938l0.153,0.185l-7.047,6.876l-4.967,3.077Z" style="fill:#acadb3;fill-rule:nonzero;"/><path d="M21.547,22.978l-0.327,-19.907c0,0 -0.166,-1.543 2.659,-2.229l16.197,22.563l17.41,-14.711c0,0 3.288,0.34 3.288,3.512l-0.659,19.905l-4.923,-0.906l0.433,-13.232l-12.146,10.178l-6.575,-1.581l-11.051,-15.155l0.226,12.288l-4.532,-0.725Z" style="fill:#371711;fill-rule:nonzero;"/><path d="M55.31,31.105l4.693,0.867l0.65,-19.774c0,-2.818 -2.736,-3.319 -3.13,-3.378l-17.467,14.757l-0.07,-0.102l-16.157,-22.493c-2.598,0.655 -2.496,2.019 -2.493,2.075l0.329,19.814l4.295,0.691l-0.235,-12.517l11.248,15.414l6.475,1.562l12.304,-10.312l-0.442,13.396Zm4.918,1.154l-5.156,-0.951l0.431,-13.072l-11.997,10.048l-0.055,-0.01l-6.614,-1.594l-0.028,-0.038l-10.833,-14.857l0.222,12.065l-4.764,-0.769l0,-0.103l-0.329,-19.904c-0.008,-0.059 -0.145,-1.646 2.746,-2.351l0.073,-0.018l16.173,22.52l17.355,-14.658l0.047,0.003c0.036,0.005 3.389,0.393 3.389,3.636l-0.66,20.053Z" style="fill:#371711;fill-rule:nonzero;"/><path d="M71.27,60.181l1.948,11.808l-3.483,0l-0.17,-2.121l-1.22,0l-0.202,2.121l-3.524,0l1.73,-11.808l4.921,0Zm-1.802,7.593c-0.172,-1.338 -0.344,-2.988 -0.517,-4.953c-0.345,2.256 -0.561,3.908 -0.647,4.953l1.164,0Z" style="fill:#371612;fill-rule:nonzero;"/><path d="M82.224,60.181l0,11.808l-2.982,0l-1.77,-5.367l0,5.367l-2.844,0l0,-11.808l2.844,0l1.907,5.317l0,-5.317l2.845,0Zm-0.388,-1.758c-0.248,0.491 -0.552,0.834 -0.913,1.028c-0.361,0.195 -0.679,0.292 -0.954,0.292c-0.382,0 -0.794,-0.08 -1.236,-0.241l-0.598,-0.212c-0.382,-0.14 -0.668,-0.212 -0.856,-0.212c-0.4,0 -0.728,0.244 -0.987,0.731l-1.277,-0.766c0.593,-0.943 1.261,-1.416 2.004,-1.416c0.389,0 0.811,0.078 1.269,0.234l0.502,0.168c0.42,0.14 0.705,0.211 0.857,0.211c0.447,0 0.742,-0.219 0.888,-0.656l1.301,0.839Z" style="fill:#371612;fill-rule:nonzero;"/><path d="M92.193,67.095c0,1.187 -0.031,2.027 -0.094,2.52c-0.062,0.494 -0.255,0.945 -0.581,1.354c-0.325,0.409 -0.766,0.722 -1.321,0.94c-0.556,0.219 -1.202,0.329 -1.941,0.329c-0.7,0 -1.328,-0.103 -1.886,-0.31c-0.558,-0.206 -1.007,-0.517 -1.346,-0.93c-0.34,-0.414 -0.542,-0.864 -0.606,-1.349c-0.066,-0.487 -0.097,-1.338 -0.097,-2.554l0,-2.02c0,-1.186 0.03,-2.027 0.093,-2.52c0.062,-0.493 0.255,-0.945 0.582,-1.354c0.326,-0.407 0.766,-0.721 1.321,-0.94c0.556,-0.218 1.201,-0.328 1.939,-0.328c0.701,0 1.33,0.104 1.888,0.31c0.558,0.206 1.006,0.517 1.345,0.93c0.34,0.413 0.542,0.863 0.606,1.348c0.066,0.487 0.098,1.338 0.098,2.554l0,2.02Zm-3.403,-3.881c0,-0.549 -0.033,-0.9 -0.101,-1.053c-0.067,-0.153 -0.206,-0.23 -0.415,-0.23c-0.179,0 -0.314,0.062 -0.409,0.187c-0.094,0.123 -0.141,0.489 -0.141,1.096l0,5.516c0,0.685 0.031,1.109 0.093,1.269c0.062,0.16 0.206,0.24 0.432,0.24c0.231,0 0.38,-0.092 0.445,-0.277c0.064,-0.185 0.096,-0.624 0.096,-1.32l0,-5.428Z" style="fill:#371612;fill-rule:nonzero;"/><path d="M101.499,63.755l-3.161,0l0,-0.876c0,-0.409 -0.04,-0.669 -0.121,-0.781c-0.08,-0.112 -0.215,-0.167 -0.404,-0.167c-0.205,0 -0.36,0.075 -0.466,0.225c-0.104,0.152 -0.156,0.381 -0.156,0.687c0,0.394 0.059,0.69 0.177,0.889c0.113,0.2 0.435,0.441 0.961,0.722c1.515,0.812 2.469,1.478 2.861,1.999c0.395,0.52 0.591,1.36 0.591,2.517c0,0.841 -0.109,1.461 -0.328,1.859c-0.218,0.4 -0.64,0.734 -1.264,1.004c-0.625,0.269 -1.353,0.405 -2.182,0.405c-0.911,0 -1.689,-0.156 -2.332,-0.468c-0.644,-0.31 -1.065,-0.707 -1.265,-1.188c-0.2,-0.482 -0.298,-1.166 -0.298,-2.05l0,-0.773l3.159,0l0,1.437c0,0.442 0.045,0.726 0.133,0.853c0.089,0.126 0.247,0.189 0.474,0.189c0.226,0 0.394,-0.079 0.504,-0.239c0.111,-0.161 0.166,-0.4 0.166,-0.716c0,-0.695 -0.105,-1.149 -0.315,-1.364c-0.215,-0.214 -0.746,-0.572 -1.593,-1.072c-0.845,-0.506 -1.405,-0.874 -1.68,-1.101c-0.275,-0.229 -0.503,-0.545 -0.683,-0.949c-0.181,-0.404 -0.271,-0.92 -0.271,-1.546c0,-0.905 0.128,-1.565 0.385,-1.984c0.256,-0.419 0.668,-0.746 1.24,-0.981c0.571,-0.237 1.261,-0.355 2.069,-0.355c0.884,0 1.636,0.129 2.258,0.387c0.622,0.258 1.036,0.582 1.237,0.974c0.203,0.392 0.304,1.057 0.304,1.994l0,0.469Z" style="fill:#371612;fill-rule:nonzero;"/><path d="M41.963,62.288c-0.053,0.301 0.122,0.601 0.508,0.601c0.368,0 0.613,-0.142 0.894,-0.3l0.561,-0.317l-1.56,8.098c-0.228,1.219 0.018,1.726 1.315,1.726c0.718,0 0.999,-0.159 0.999,-0.159c0,0 -0.193,-0.396 0.017,-1.502l1.647,-8.48c0.229,-1.218 -0.016,-1.724 -1.314,-1.724c0,0 -0.858,1.044 -3.067,2.057Z" style="fill:#938379;fill-rule:nonzero;"/><path d="M47.694,62.288c-0.052,0.301 0.123,0.601 0.508,0.601c0.368,0 0.614,-0.142 0.894,-0.3l0.561,-0.317l-1.561,8.098c-0.227,1.219 0.018,1.726 1.315,1.726c0.719,0 0.999,-0.159 0.999,-0.159c0,0 -0.192,-0.396 0.017,-1.502l1.648,-8.48c0.228,-1.218 -0.017,-1.724 -1.315,-1.724c0,0 -0.858,1.044 -3.066,2.057Z" style="fill:#938379;fill-rule:nonzero;"/><path d="M58.98,60.231c-3.294,0 -5.574,3.339 -5.574,7.688c0,2.705 1.473,4.177 3.804,4.177c3.488,0 5.626,-3.496 5.626,-7.688c0,-2.499 -1.21,-4.177 -3.856,-4.177Zm-0.017,0.87c0.858,0 1.437,0.586 1.437,2.263c0,2.325 -0.543,4.667 -1.175,6.058c-0.543,1.202 -1.244,1.804 -1.944,1.804c-0.93,0 -1.438,-0.68 -1.438,-2.263c0,-2.294 0.561,-4.651 1.174,-6.058c0.508,-1.155 1.227,-1.804 1.946,-1.804Z" style="fill:#938379;fill-rule:nonzero;"/></svg>