<?xml version="1.0" encoding="UTF-8" standalone="no"?><!DOCTYPE svg PUBLIC "-//W3C//DTD SVG 1.1//EN" "http://www.w3.org/Graphics/SVG/1.1/DTD/svg11.dtd"><svg viewBox="0 0 528 76" version="1.1" xmlns="http://www.w3.org/2000/svg" xmlns:xlink="http://www.w3.org/1999/xlink" xml:space="preserve" xmlns:serif="http://www.serif.com/" style="fill-rule:evenodd;clip-rule:evenodd;stroke-linejoin:round;stroke-miterlimit:1.41421;"><g><path d="M219.023,41.202l22.915,-2.339l-1.579,-2.706l-3.955,0.73l3.162,-1.448l-1.584,-2.34l-18.959,8.103Z" style="fill:#d6d6db;fill-rule:nonzero;"/><path d="M251.045,49.666c0,0 60.117,-18.923 60.575,-20.017c0.46,-1.094 -1.653,-2.41 -5.924,-1.477c-4.266,0.942 -35.171,4.437 -35.171,4.437l-3.203,3.142l33.394,-4.385l-40.868,12.672l7.474,-8.287l15.862,-15.798c0,0 -3.816,-0.941 -5.493,0.158c-1.683,1.092 -20.241,7.19 -20.241,7.19l-0.155,2.349l13.23,-4.85l-8.541,8.761l-4.996,0.78l-0.15,2.342l2.095,-0.313l-1.945,2.254l-0.15,6.354l-5.793,4.688Z" style="fill:#d6d6db;fill-rule:nonzero;"/><path d="M252.43,30.099l5.221,-3.396l-0.653,18.877l-5.335,4.061l0.767,-19.542Z" style="fill:#cbc3c0;fill-rule:nonzero;"/><path d="M252.536,30.163l-0.752,19.245l5.107,-3.889l0.642,-18.612l-4.997,3.256Zm-0.987,19.705l0.007,-0.234l0.767,-19.597l0.048,-0.031l5.396,-3.517l-0.007,0.214l-0.654,18.935l-0.043,0.033l-5.514,4.197Z" style="fill:#cbc3c0;fill-rule:nonzero;"/><path d="M237.273,26.229l5.298,-3.37l5.719,7.833l-0.315,9.909l-10.702,-14.372Z" style="fill:#cbc3c0;fill-rule:nonzero;"/><path d="M220.967,22.16l5.399,-3.148l-0.102,9.982l-5.098,4.766l-0.199,-11.6Z" style="fill:#cbc3c0;fill-rule:nonzero;"/><path d="M221.079,22.227l0.192,11.284l4.885,-4.571l0.099,-9.73l-5.176,3.017Zm-0.015,11.784l-0.208,-11.919l5.621,-3.272l-0.102,10.221l-0.037,0.035l-5.274,4.935Z" style="fill:#cbc3c0;fill-rule:nonzero;"/><path d="M235.292,30.226l-0.928,-1.394l-14.116,11.963l6.599,-2.915l8.445,-7.654Z" style="fill:#cbc3c0;fill-rule:nonzero;"/><path d="M234.343,28.994l-13.431,11.382l5.874,-2.589l8.357,-7.575l-0.8,-1.218Zm-14.05,11.905l-0.114,-0.192l14.209,-12.045l1.05,1.584l-8.55,7.74l-6.595,2.913Z" style="fill:#cbc3c0;fill-rule:nonzero;"/><path d="M216.732,20.92l0.262,17.843c0,0 1.017,3.103 3.254,2.032l13.967,-11.852l15.486,20.815c0,0 2.856,0.86 2.448,-2.023l0.61,-17.724l-4.587,-1.178l-0.2,11.742l-10.699,-14.413l-6.016,-1.706l-10.09,9.073l-0.2,-11.424l-4.235,-1.185Z" style="fill:#938379;fill-rule:nonzero;"/><path d="M249.765,49.658c0.102,0.03 0.436,0.108 0.811,0.108c0.54,0 0.943,-0.155 1.193,-0.454c0.279,-0.334 0.37,-0.86 0.27,-1.562l0.608,-17.652l-4.369,-1.118l-0.203,11.921l-0.188,-0.255l-10.677,-14.382l-5.926,-1.685l-10.221,9.195l-0.203,-11.581l-4.017,-1.124l0.261,17.676c0.07,0.2 0.797,2.159 2.236,2.159c0.27,0 0.557,-0.068 0.851,-0.208l14.04,-11.916l15.534,20.878Zm0.811,0.336c-0.486,0 -0.889,-0.118 -0.906,-0.125l-0.034,-0.01l-0.022,-0.03l-15.417,-20.727l-13.902,11.797c-0.325,0.151 -0.65,0.234 -0.956,0.234c-1.663,0 -2.417,-2.235 -2.448,-2.332l-0.007,-0.035l-0.265,-17.997l4.457,1.252l0.002,0.083l0.192,11.181l9.957,-8.95l6.11,1.729l0.02,0.027l10.511,14.159l0.198,-11.557l4.807,1.227l-0.618,17.82c0.11,0.746 0,1.329 -0.319,1.719c-0.291,0.347 -0.76,0.535 -1.36,0.535" style="fill:#938379;fill-rule:nonzero;"/><path d="M218.93,0.941l7.362,0.11l12.4,17.245l-4.333,4.072l-15.429,-21.427Z" style="fill:#a1a2a9;fill-rule:nonzero;"/><path d="M219.15,1.063l15.225,21.137l4.172,-3.918l-12.308,-17.12l-7.089,-0.099Zm15.193,21.471l-0.071,-0.099l-15.564,-21.606l7.641,0.111l0.031,0.042l12.458,17.331l-0.071,0.068l-4.424,4.153Z" style="fill:#a1a2a9;fill-rule:nonzero;"/><path d="M250.236,8.216l5.529,-2.634c0,0 2.258,0.236 2.571,2.406l-0.78,18.801l-4.828,3.25l0.395,-19.807c0,0.001 -1.483,-2.094 -2.887,-2.016" style="fill:#a1a2a9;fill-rule:nonzero;"/><path d="M250.662,8.138c1.292,0.275 2.492,1.947 2.545,2.026l0.025,0.03l0,0.039l-0.39,19.593l4.606,-3.104l0.781,-18.736c-0.277,-1.912 -2.192,-2.247 -2.445,-2.286l-5.122,2.438Zm1.953,22.108l0,-0.209l0.395,-19.77c-0.186,-0.254 -1.528,-2.015 -2.767,-1.936l-0.053,-0.216l5.558,-2.644l0.028,0.001c0.025,0.002 2.349,0.27 2.669,2.501l-0.782,18.878l-5.048,3.395Z" style="fill:#a1a2a9;fill-rule:nonzero;"/><path d="M220.491,22.319l6.201,-3.216l0,-0.954l-6.019,-7.301l-0.182,11.471Z" style="fill:#a1a2a9;fill-rule:nonzero;"/><path d="M220.776,11.149l-0.176,10.988l5.978,-3.104l0,-0.843l-5.802,-7.041Zm-0.398,11.356l0.002,-0.186l0.185,-11.772l6.231,7.56l0,1.067l-6.418,3.331Z" style="fill:#a1a2a9;fill-rule:nonzero;"/><path d="M237.402,26.207l4.606,-2.849l6.555,-6.401l-11.161,9.25Z" style="fill:#acadb3;fill-rule:nonzero;"/><path d="M246.532,18.79l-7.808,6.472l3.229,-2.001l4.579,-4.471Zm-9.074,7.517l-0.121,-0.186l11.161,-9.251l0.143,0.172l-6.56,6.401l-4.623,2.864Z" style="fill:#acadb3;fill-rule:nonzero;"/><path d="M216.757,21.552l-0.305,-18.53c0,0 -0.154,-1.436 2.475,-2.074l15.077,21.002l16.205,-13.694c0,0 3.061,0.317 3.061,3.269l-0.614,18.528l-4.582,-0.843l0.403,-12.317l-11.306,9.474l-6.12,-1.471l-10.286,-14.107l0.21,11.438l-4.218,-0.675Z" style="fill:#371711;fill-rule:nonzero;"/><path d="M248.184,29.117l4.368,0.807l0.605,-18.406c0,-2.623 -2.547,-3.089 -2.913,-3.144l-16.259,13.736l-0.065,-0.095l-15.039,-20.937c-2.419,0.61 -2.324,1.879 -2.321,1.931l0.306,18.444l3.998,0.643l-0.218,-11.651l10.469,14.347l6.027,1.454l11.453,-9.598l-0.411,12.469Zm4.578,1.074l-4.8,-0.885l0.401,-12.168l-11.167,9.353l-0.051,-0.009l-6.156,-1.484l-0.026,-0.035l-10.084,-13.829l0.207,11.23l-4.435,-0.716l0,-0.096l-0.306,-18.527c-0.007,-0.055 -0.135,-1.532 2.556,-2.188l0.068,-0.017l15.054,20.962l16.155,-13.644l0.043,0.003c0.034,0.005 3.155,0.366 3.155,3.384l-0.614,18.666Z" style="fill:#371711;fill-rule:nonzero;"/></g><g><path d="M263.04,56.181l1.813,10.992l-3.242,0l-0.158,-1.975l-1.136,0l-0.188,1.975l-3.28,0l1.61,-10.992l4.581,0Zm-1.678,7.068c-0.16,-1.245 -0.32,-2.781 -0.481,-4.61c-0.321,2.1 -0.522,3.637 -0.602,4.61l1.083,0Z" style="fill:#371612;fill-rule:nonzero;"/><path d="M273.236,56.181l0,10.992l-2.776,0l-1.647,-4.996l0,4.996l-2.648,0l0,-10.992l2.648,0l1.775,4.95l0,-4.95l2.648,0Zm-0.361,-1.636c-0.231,0.457 -0.514,0.776 -0.85,0.957c-0.336,0.181 -0.632,0.272 -0.888,0.272c-0.356,0 -0.739,-0.075 -1.151,-0.225l-0.556,-0.197c-0.356,-0.13 -0.622,-0.197 -0.797,-0.197c-0.372,0 -0.678,0.227 -0.919,0.68l-1.188,-0.713c0.552,-0.878 1.173,-1.318 1.865,-1.318c0.362,0 0.755,0.073 1.181,0.218l0.467,0.156c0.391,0.131 0.657,0.197 0.798,0.197c0.416,0 0.691,-0.204 0.827,-0.611l1.211,0.781Z" style="fill:#371612;fill-rule:nonzero;"/><path d="M282.515,62.617c0,1.105 -0.029,1.887 -0.087,2.346c-0.058,0.46 -0.238,0.879 -0.541,1.26c-0.303,0.381 -0.713,0.672 -1.23,0.875c-0.517,0.204 -1.119,0.306 -1.806,0.306c-0.652,0 -1.237,-0.096 -1.756,-0.288c-0.519,-0.192 -0.937,-0.481 -1.253,-0.866c-0.316,-0.385 -0.504,-0.804 -0.564,-1.256c-0.061,-0.453 -0.09,-1.245 -0.09,-2.377l0,-1.88c0,-1.104 0.028,-1.887 0.086,-2.346c0.058,-0.459 0.238,-0.879 0.542,-1.26c0.304,-0.379 0.713,-0.671 1.23,-0.875c0.517,-0.203 1.118,-0.305 1.805,-0.305c0.652,0 1.238,0.096 1.757,0.288c0.519,0.192 0.936,0.481 1.252,0.866c0.316,0.384 0.504,0.803 0.564,1.255c0.061,0.453 0.091,1.245 0.091,2.377l0,1.88Zm-3.167,-3.612c0,-0.511 -0.031,-0.838 -0.094,-0.981c-0.063,-0.142 -0.192,-0.214 -0.387,-0.214c-0.166,0 -0.292,0.058 -0.38,0.174c-0.088,0.115 -0.132,0.456 -0.132,1.021l0,5.134c0,0.638 0.029,1.032 0.087,1.181c0.058,0.149 0.192,0.224 0.402,0.224c0.215,0 0.354,-0.086 0.414,-0.258c0.06,-0.172 0.09,-0.581 0.09,-1.229l0,-5.052l0,0Z" style="fill:#371612;fill-rule:nonzero;"/><path d="M291.177,59.508l-2.942,0l0,-0.815c0,-0.381 -0.037,-0.623 -0.113,-0.727c-0.074,-0.104 -0.2,-0.156 -0.376,-0.156c-0.19,0 -0.335,0.07 -0.433,0.21c-0.097,0.141 -0.146,0.354 -0.146,0.639c0,0.367 0.055,0.643 0.165,0.828c0.105,0.186 0.405,0.41 0.895,0.672c1.41,0.756 2.298,1.376 2.663,1.861c0.367,0.484 0.55,1.265 0.55,2.342c0,0.783 -0.102,1.36 -0.305,1.731c-0.203,0.372 -0.596,0.683 -1.177,0.934c-0.582,0.251 -1.259,0.377 -2.031,0.377c-0.848,0 -1.572,-0.145 -2.171,-0.435c-0.599,-0.289 -0.991,-0.658 -1.177,-1.106c-0.186,-0.449 -0.278,-1.085 -0.278,-1.908l0,-0.72l2.941,0l0,1.338c0,0.411 0.042,0.676 0.124,0.794c0.083,0.117 0.23,0.176 0.441,0.176c0.21,0 0.367,-0.074 0.469,-0.223c0.103,-0.15 0.155,-0.372 0.155,-0.666c0,-0.647 -0.098,-1.07 -0.294,-1.27c-0.2,-0.199 -0.694,-0.532 -1.482,-0.998c-0.787,-0.471 -1.308,-0.813 -1.564,-1.025c-0.256,-0.213 -0.468,-0.507 -0.636,-0.883c-0.168,-0.376 -0.252,-0.856 -0.252,-1.439c0,-0.842 0.119,-1.457 0.358,-1.847c0.238,-0.39 0.622,-0.694 1.154,-0.913c0.532,-0.22 1.174,-0.33 1.926,-0.33c0.823,0 1.523,0.12 2.102,0.36c0.579,0.24 0.964,0.542 1.151,0.907c0.189,0.364 0.283,0.983 0.283,1.856l0,0.436Z" style="fill:#371612;fill-rule:nonzero;"/></g><g><path d="M235.76,58.143c-0.049,0.28 0.114,0.559 0.473,0.559c0.343,0 0.571,-0.132 0.832,-0.279l0.522,-0.295l-1.452,7.538c-0.212,1.134 0.017,1.606 1.224,1.606c0.669,0 0.93,-0.148 0.93,-0.148c0,0 -0.179,-0.368 0.016,-1.398l1.533,-7.893c0.213,-1.134 -0.015,-1.605 -1.223,-1.605c0,0 -0.799,0.972 -2.855,1.915Z" style="fill:#938379;fill-rule:nonzero;"/><path d="M241.095,58.143c-0.049,0.28 0.114,0.559 0.473,0.559c0.342,0 0.571,-0.132 0.832,-0.279l0.522,-0.295l-1.453,7.538c-0.211,1.134 0.017,1.606 1.224,1.606c0.669,0 0.93,-0.148 0.93,-0.148c0,0 -0.179,-0.368 0.016,-1.398l1.534,-7.893c0.212,-1.134 -0.016,-1.605 -1.224,-1.605c0,0 -0.799,0.972 -2.854,1.915Z" style="fill:#938379;fill-rule:nonzero;"/><path d="M251.6,56.228c-3.066,0 -5.188,3.108 -5.188,7.156c0,2.518 1.371,3.888 3.54,3.888c3.247,0 5.237,-3.254 5.237,-7.156c0,-2.326 -1.126,-3.888 -3.589,-3.888Zm-0.016,0.81c0.799,0 1.338,0.545 1.338,2.106c0,2.164 -0.506,4.344 -1.094,5.639c-0.505,1.119 -1.158,1.679 -1.81,1.679c-0.865,0 -1.338,-0.633 -1.338,-2.106c0,-2.135 0.522,-4.329 1.093,-5.639c0.473,-1.075 1.142,-1.679 1.811,-1.679Z" style="fill:#938379;fill-rule:nonzero;"/></g></svg>