<?xml version="1.0" encoding="UTF-8" standalone="no"?><!DOCTYPE svg PUBLIC "-//W3C//DTD SVG 1.1//EN" "http://www.w3.org/Graphics/SVG/1.1/DTD/svg11.dtd"><svg width="100%" height="100%" viewBox="0 0 31 31" version="1.1" xmlns="http://www.w3.org/2000/svg" xmlns:xlink="http://www.w3.org/1999/xlink" xml:space="preserve" xmlns:serif="http://www.serif.com/" style="fill-rule:evenodd;clip-rule:evenodd;stroke-linecap:round;stroke-linejoin:round;"><path d="M30.315,15.445c0,6.492 -4.128,12.018 -9.904,14.099c-4.178,1.499 -8.813,1.071 -12.645,-1.168c-4.435,-2.6 -7.413,-7.418 -7.413,-12.931c0,-8.273 6.708,-14.981 14.981,-14.981c8.274,0 14.981,6.708 14.981,14.981Z" style="fill:rgba(47,55,58,.9);fill-rule:nonzero;"/><g><path d="M17.214,4.439c0,-0.212 -0.271,-0.386 -0.6,-0.386l-5.111,0c-0.002,0 -0.004,0 -0.005,0c-0.33,0 -0.601,0.174 -0.601,0.386l0,2.995c0,0.212 0.271,0.386 0.601,0.386l1.102,0c0.139,0 0.253,0.073 0.253,0.163l0,0.417c0.001,0.064 0.062,0.123 0.155,0.148c0.093,0.024 0.199,0.01 0.271,-0.034l1.014,-0.652c0.047,-0.03 0.111,-0.047 0.177,-0.047l2.151,0c0.324,-0.003 0.589,-0.173 0.593,-0.381l0,-2.995Z" style="fill:none;stroke:#fff;stroke-width:0.15px;"/><path d="M7.789,22.505l0,1.451" style="fill:none;stroke:#fff;stroke-width:0.15px;"/><path d="M8.859,23.994l0.078,-1.489" style="fill:none;stroke:#fff;stroke-width:0.15px;"/><path d="M11.363,22.505l0,1.489" style="fill:none;stroke:#fff;stroke-width:0.15px;"/><path d="M10.287,23.959l-0.073,-1.454" style="fill:none;stroke:#fff;stroke-width:0.15px;"/><path d="M7.608,11.629c-0.001,0.011 -0.001,0.023 -0.001,0.035c0,0.244 0.202,0.446 0.45,0.45c0.229,0.733 0.922,1.237 1.703,1.237c0.976,0 1.78,-0.79 1.78,-1.75c0,-0.005 0,-0.009 0,-0.014l0,-0.79" style="fill:none;stroke:#fff;stroke-width:0.15px;"/><path d="M9.398,11.235c-0.099,0 -0.181,0.08 -0.181,0.177c0,0.098 0.082,0.178 0.181,0.178c0.099,0 0.18,-0.08 0.18,-0.178c0,-0.097 -0.081,-0.177 -0.18,-0.177Z" style="fill:#fff;fill-rule:nonzero;stroke:#fff;stroke-width:0.15px;stroke-linecap:butt;stroke-miterlimit:1.41421;"/><path d="M10.742,11.235c-0.101,0 -0.184,0.082 -0.184,0.181c0,0.099 0.083,0.181 0.184,0.181c0.101,0 0.185,-0.082 0.185,-0.181c0,-0.099 -0.084,-0.181 -0.185,-0.181Z" style="fill:#fff;fill-rule:nonzero;stroke:#fff;stroke-width:0.15px;stroke-linecap:butt;stroke-miterlimit:1.41421;"/><path d="M9.753,12.478c0.174,0.153 0.43,0.177 0.63,0.059c0.031,-0.016 0.059,-0.035 0.085,-0.059" style="fill:none;stroke:#fff;stroke-width:0.15px;"/><path d="M8.503,10.773c-0.018,0.475 -0.42,0.856 -0.904,0.856l0,-1.975" style="fill:none;stroke:#fff;stroke-width:0.15px;"/><path d="M12.164,16.031c-0.306,-1.261 -1.462,-2.159 -2.782,-2.159c-1.568,0 -2.859,1.269 -2.859,2.81c0,0.017 0,0.033 0,0.05l0,0.353l1.085,0l0,2.282" style="fill:none;stroke:#fff;stroke-width:0.15px;"/><path d="M11.54,10.181l0,-0.696c0,-0.487 -0.408,-0.888 -0.904,-0.888l-2.136,0c-0.496,0 -0.904,0.401 -0.904,0.888l0,0.705" style="fill:none;stroke:#fff;stroke-width:0.15px;"/><path d="M9.576,8.597c0,0 -1.073,0.527 -1.073,1.406" style="fill:none;stroke:#fff;stroke-width:0.15px;"/><path d="M9.576,8.597c0,0 1.072,0.527 1.072,1.406" style="fill:none;stroke:#fff;stroke-width:0.15px;"/><path d="M7.608,19.018l0,3.218c0,0.162 0.136,0.296 0.301,0.296l0.928,0c0.159,0 0.292,-0.123 0.302,-0.279l0.072,-1.302c0.017,-0.188 0.18,-0.334 0.372,-0.334c0.193,0 0.355,0.146 0.372,0.334l0.073,1.302c0.009,0.156 0.142,0.279 0.301,0.279l0.928,0c0.165,0 0.301,-0.134 0.301,-0.296l0,-2.685" style="fill:none;stroke:#fff;stroke-width:0.15px;"/><path d="M12.077,24.808c0,-0.627 -0.627,-0.888 -1.179,-0.888l-0.491,0c-0.165,0 -0.301,0.134 -0.301,0.296l0,0.296c0,0.163 0.136,0.296 0.301,0.296l1.67,0Z" style="fill:none;stroke:#fff;stroke-width:0.15px;"/><path d="M9.576,24.808c0,-0.627 -0.627,-0.888 -1.182,-0.888l-0.488,0c-0.165,0 -0.301,0.134 -0.301,0.296l0,0.296c0,0.163 0.136,0.296 0.301,0.296l1.67,0Z" style="fill:none;stroke:#fff;stroke-width:0.15px;"/><path d="M7.608,20.246c0,0.289 -0.242,0.527 -0.536,0.527c-0.295,0 -0.537,-0.238 -0.537,-0.527l0,-3.161l1.073,0l0,3.161Z" style="fill:none;stroke:#fff;stroke-width:0.15px;"/><path d="M7.608,17.085l0,-1.054" style="fill:none;stroke:#fff;stroke-width:0.15px;"/><path d="M9.395,13.926c-0.269,-0.001 -0.537,0.037 -0.796,0.112l0.977,1.643l0.904,-1.542c-0.344,-0.14 -0.713,-0.212 -1.085,-0.213Z" style="fill:none;stroke:#fff;stroke-width:0.15px;"/><path d="M10.986,14.4c-0.157,-0.103 -0.323,-0.19 -0.497,-0.261l-0.904,1.542c0.408,-0.347 0.903,-0.58 1.434,-0.675c0.072,-0.012 0.125,-0.074 0.125,-0.146c0,-0.015 -0.002,-0.031 -0.007,-0.046l-0.151,-0.414Z" style="fill:none;stroke:#fff;stroke-width:0.15px;"/><path d="M9.576,15.681l-0.977,-1.643c-0.121,0.035 -0.24,0.077 -0.355,0.128l-0.214,0.648c-0.005,0.014 -0.007,0.029 -0.007,0.044c0,0.072 0.053,0.135 0.124,0.148c0.529,0.097 1.022,0.33 1.429,0.675Z" style="fill:none;stroke:#fff;stroke-width:0.15px;"/><path d="M9.576,15.681l0,0.877" style="fill:none;stroke:#fff;stroke-width:0.15px;"/><path d="M11.54,19.545l-3.932,0l0,-0.705" style="fill:none;stroke:#fff;stroke-width:0.15px;"/><rect x="9.039" y="18.84" width="1.073" height="0.702" style="fill:none;stroke:#fff;stroke-width:0.15px;"/><path d="M7.608,10.181l0.422,0.533c0.072,0.088 0.189,0.128 0.301,0.103c0.989,-0.244 2.024,-0.244 3.013,0c0.114,0.024 0.231,-0.019 0.302,-0.109c0.065,-0.098 0.065,-0.225 0,-0.323l-0.127,-0.207c-0.693,-0.346 -2.48,-0.346 -3.911,0.003Z" style="fill:none;stroke:#fff;stroke-width:0.15px;"/><path d="M10.407,19.551c-0.165,0 -0.301,-0.134 -0.301,-0.296l0,-2.931c0,-0.163 0.136,-0.296 0.301,-0.296l2.98,0c0.166,0 0.302,0.133 0.302,0.296l0,2.931" style="fill:none;stroke:#fff;stroke-width:0.15px;"/><path d="M13.454,18.778c-0.092,-0.178 -0.278,-0.291 -0.481,-0.291c-0.295,0 -0.538,0.239 -0.538,0.529c0,0.083 0.02,0.165 0.057,0.239l0.187,0.367c0.037,0.069 0.1,0.121 0.175,0.145c0.075,0.023 0.156,0.016 0.226,-0.018l0.425,-0.198c0.143,-0.074 0.203,-0.248 0.133,-0.391l-0.184,-0.382Z" style="fill:none;stroke:#fff;stroke-width:0.15px;"/><path d="M18.983,17.085l-0.708,0l0,3.161c0,0.288 0.241,0.524 0.533,0.524c0.001,0 0.002,0 0.003,0" style="fill:none;stroke:#fff;stroke-width:0.15px;"/><path d="M18.983,24.056l0,-5.032l1.787,0" style="fill:none;stroke:#fff;stroke-width:0.15px;"/><path d="M21.49,24.053l-0.169,-3.105c-0.017,-0.188 -0.179,-0.334 -0.372,-0.334c-0.192,0 -0.355,0.146 -0.372,0.334l-0.193,3.387" style="fill:none;stroke:#fff;stroke-width:0.15px;"/><path d="M22.915,19.367l0,4.968" style="fill:none;stroke:#fff;stroke-width:0.15px;"/><path d="M18.447,24.808c0,-0.627 0.626,-0.888 1.178,-0.888l0.786,0l0,0.592c0,0.163 -0.136,0.296 -0.301,0.296l-1.663,0Z" style="fill:none;stroke:#fff;stroke-width:0.15px;"/><path d="M20.948,24.808c0,-0.627 0.626,-0.888 1.181,-0.888l0.786,0l0,0.592c0,0.163 -0.136,0.296 -0.301,0.296l-1.666,0Z" style="fill:none;stroke:#fff;stroke-width:0.15px;"/><path d="M22.734,11.235c0.513,0 0.477,0.888 -0.087,0.888c-0.225,0.738 -0.921,1.247 -1.706,1.247c-0.977,0 -1.781,-0.79 -1.781,-1.749c0,-0.012 0.001,-0.023 0.001,-0.034l0,-0.888" style="fill:none;stroke:#fff;stroke-width:0.15px;"/><path d="M21.22,11.06c-0.1,0 -0.182,0.081 -0.182,0.179c0,0.098 0.082,0.179 0.182,0.179c0.1,0 0.182,-0.081 0.182,-0.179c0,-0.098 -0.082,-0.179 -0.182,-0.179Z" style="fill:#fff;fill-rule:nonzero;stroke:#fff;stroke-width:0.15px;stroke-linecap:butt;stroke-miterlimit:1.41421;"/><path d="M19.877,11.06c-0.099,0 -0.18,0.08 -0.18,0.177c0,0.097 0.081,0.177 0.18,0.177c0.099,0 0.18,-0.08 0.18,-0.177c0,-0.097 -0.081,-0.177 -0.18,-0.177Z" style="fill:#fff;fill-rule:nonzero;stroke:#fff;stroke-width:0.15px;stroke-linecap:butt;stroke-miterlimit:1.41421;"/><path d="M21.038,12.271c-0.218,0.191 -0.539,0.221 -0.789,0.074c-0.037,-0.023 -0.072,-0.047 -0.106,-0.074" style="fill:none;stroke:#fff;stroke-width:0.15px;"/><path d="M19.161,10.708c-0.356,-0.175 -0.145,-1.081 0.181,-1.229l-0.232,-0.183c-0.066,-0.056 -0.103,-0.137 -0.103,-0.223c0,-0.156 0.127,-0.287 0.286,-0.295l2.191,0c0.784,0 1.43,0.633 1.431,1.403l0,1.054c-1.072,0 -1.051,-0.829 -1.967,-1.054c-0.024,0.204 -0.302,0.397 -0.714,0.527c0,-0.004 0,-0.008 0,-0.012c0,-0.283 -0.237,-0.515 -0.525,-0.515c-0.004,0 -0.008,0 -0.012,0l-0.536,0.527Z" style="fill:none;stroke:#fff;stroke-width:0.15px;"/><path d="M18.983,19.367l0,-2.282l-0.708,0l0,-0.353c0,-1.543 1.292,-2.812 2.862,-2.812c1.571,0 2.863,1.269 2.863,2.812l0,0.353l-1.085,0" style="fill:none;stroke:#fff;stroke-width:0.15px;"/><path d="M18.983,17.085l0,-1.054" style="fill:none;stroke:#fff;stroke-width:0.15px;"/><path d="M22.915,17.085l0,-1.054" style="fill:none;stroke:#fff;stroke-width:0.15px;"/><path d="M20.948,14.98c-0.475,-0.011 -0.864,-0.387 -0.883,-0.853c0.56,-0.222 1.178,-0.261 1.763,-0.112c0.002,0.025 0.003,0.051 0.003,0.077c0,0.479 -0.395,0.877 -0.883,0.888Z" style="fill:none;stroke:#fff;stroke-width:0.15px;"/><path d="M22.915,17.085l0,0.174c0.005,0.805 -0.617,1.492 -1.431,1.581l-0.356,0c-0.294,0 -0.536,0.238 -0.536,0.527c0,0.289 0.242,0.527 0.536,0.527l0.356,0c1.181,0 2.504,-1.125 2.504,-2.635l0,-0.174l-1.073,0Z" style="fill:none;stroke:#fff;stroke-width:0.15px;"/><path d="M7.608,18.84l2.504,0" style="fill:none;stroke:#fff;stroke-width:0.15px;"/><path d="M12.64,19.551l-2.233,0" style="fill:none;stroke:#fff;stroke-width:0.15px;"/></g></svg>