<?xml version="1.0" encoding="UTF-8" standalone="no"?><!DOCTYPE svg PUBLIC "-//W3C//DTD SVG 1.1//EN" "http://www.w3.org/Graphics/SVG/1.1/DTD/svg11.dtd"><svg width="100%" height="100%" viewBox="0 0 31 31" version="1.1" xmlns="http://www.w3.org/2000/svg" xmlns:xlink="http://www.w3.org/1999/xlink" xml:space="preserve" xmlns:serif="http://www.serif.com/" style="fill-rule:evenodd;clip-rule:evenodd;stroke-linecap:round;stroke-linejoin:round;"><path d="M30.315,15.445c0,6.492 -4.128,12.018 -9.904,14.099c-4.178,1.499 -8.813,1.071 -12.645,-1.168c-4.435,-2.6 -7.413,-7.418 -7.413,-12.931c0,-8.273 6.708,-14.981 14.981,-14.981c8.274,0 14.981,6.708 14.981,14.981Z" style="fill:rgba(211,109,6,.8);fill-rule:nonzero;"/><g><path d="M14.336,8.453l0,0.19c-0.207,0.035 -0.361,0.219 -0.361,0.434c0,0.231 0.18,0.425 0.406,0.438c0.202,1.002 1.073,1.727 2.074,1.727c1.001,0 1.872,-0.725 2.073,-1.727c0.227,-0.013 0.406,-0.207 0.406,-0.438c0,-0.215 -0.153,-0.399 -0.361,-0.434l0,-0.81" style="fill:none;stroke:#fff;stroke-width:0.2px;"/><path d="M15.926,9.994c0.321,0.216 0.739,0.216 1.06,0" style="fill:none;stroke:#fff;stroke-width:0.2px;"/><path d="M15.576,8.367c-0.101,0 -0.183,0.081 -0.183,0.18c0,0.099 0.082,0.18 0.183,0.18c0.1,0 0.182,-0.081 0.182,-0.18c0,-0.099 -0.082,-0.18 -0.182,-0.18Z" style="fill:#fff;fill-rule:nonzero;stroke:#fff;stroke-width:0.2px;stroke-linecap:butt;stroke-miterlimit:1.41421;"/><path d="M17.193,8.367c-0.102,0.01 -0.181,0.086 -0.181,0.176c0,0.09 0.079,0.166 0.181,0.176c0.102,-0.01 0.18,-0.086 0.18,-0.176c0,-0.09 -0.078,-0.166 -0.18,-0.176Z" style="fill:#fff;fill-rule:nonzero;stroke:#fff;stroke-width:0.2px;stroke-linecap:butt;stroke-miterlimit:1.41421;"/><path d="M16.386,5.395c-1.271,0.08 -2.269,1.181 -2.249,2.48l0,0.4c0,0.001 0,0.001 0,0.001c0,0.099 0.08,0.18 0.176,0.18c0.024,0 0.047,-0.004 0.068,-0.013c0.341,-0.141 0.922,-0.476 0.922,-1.106c0.845,0.837 2.249,0.788 3.213,0.522c0.173,-0.045 0.287,-0.219 0.26,-0.4c-0.159,-1.207 -1.199,-2.105 -2.39,-2.064Z" style="fill:none;stroke:#fff;stroke-width:0.2px;"/><path d="M21.291,15.568l-0.273,-2.677c-0.065,-0.621 -0.593,-1.093 -1.205,-1.076" style="fill:none;stroke:#fff;stroke-width:0.2px;"/><path d="M18.891,11.418l0.746,0c0.097,0 0.176,0.081 0.176,0.18l0,0.361c0,0.099 -0.079,0.181 -0.176,0.181l-0.746,0c-0.176,-0.025 -0.308,-0.18 -0.308,-0.361c0,-0.182 0.132,-0.337 0.308,-0.361Z" style="fill:none;stroke:#fff;stroke-width:0.2px;"/><path d="M18.059,15.194l-0.25,0.374" style="fill:none;stroke:#fff;stroke-width:0.2px;"/><path d="M17.022,15.568l0.944,-3.333" style="fill:none;stroke:#fff;stroke-width:0.2px;"/><path d="M14.863,15.194l0.25,0.374" style="fill:none;stroke:#fff;stroke-width:0.2px;"/><path d="M13.302,13.97c-0.251,0.528 -0.428,1.086 -0.617,1.585" style="fill:none;stroke:#fff;stroke-width:0.2px;"/><path d="M8.54,5.113l-2.393,7.122c-0.093,0.278 -0.042,0.585 0.135,0.817l2.303,2.978c0.161,0.208 0.407,0.33 0.666,0.33c0.225,0 0.441,-0.092 0.6,-0.254l0.598,-0.611l-1.909,-10.382Z" style="fill:none;stroke:#fff;stroke-width:0.2px;"/><path d="M6.282,13.052l2.303,2.978c0.161,0.208 0.407,0.33 0.666,0.33c0.225,0 0.441,-0.092 0.6,-0.254l-3.485,-4.524l-0.219,0.656c-0.092,0.277 -0.041,0.583 0.135,0.814Z" style="fill:none;stroke:#fff;stroke-width:0.2px;"/><path d="M6.696,10.598l3.74,4.838l-0.341,-1.856l-3.068,-3.969l-0.331,0.987Z" style="fill:none;stroke:#fff;stroke-width:0.2px;"/><path d="M8.54,5.107l-1.182,3.519l2.397,3.1l-1.215,-6.619Z" style="fill:none;stroke:#fff;stroke-width:0.2px;"/><path d="M8.505,15.925l0,3.031" style="fill:none;stroke:#fff;stroke-width:0.2px;"/><path d="M8.965,4.674c0,0.237 -0.192,0.433 -0.425,0.433c-0.232,0 -0.424,-0.196 -0.424,-0.433c0,-0.238 0.192,-0.433 0.424,-0.433c0.233,0 0.425,0.195 0.425,0.433Z" style="fill:none;stroke:#fff;stroke-width:0.2px;"/><path d="M8.094,10.992l1.131,-2.159l-0.685,-3.726l-1.513,4.504l1.067,1.381Z" style="fill:none;stroke:#fff;stroke-width:0.2px;"/><path d="M9.536,19.753c-0.15,-0.455 -0.561,-0.771 -1.031,-0.793c-0.47,0.022 -0.881,0.338 -1.031,0.793c-0.02,0.046 -0.03,0.095 -0.03,0.145c0,0.196 0.158,0.357 0.35,0.357c0.001,0 0.001,0 0.001,0l1.414,0c0.118,0.001 0.229,-0.06 0.295,-0.161c0.065,-0.101 0.077,-0.229 0.032,-0.341Z" style="fill:none;stroke:#fff;stroke-width:0.2px;"/><path d="M11.204,18.635l-0.579,0c-0.387,0 -0.706,-0.326 -0.706,-0.722c0,-0.001 0,-0.002 0,-0.003c0,-0.394 0.317,-0.719 0.703,-0.719c0.001,0 0.002,0 0.003,0l0.579,0" style="fill:none;stroke:#fff;stroke-width:0.2px;"/><path d="M21.706,18.635l0.575,0c0.387,0 0.707,-0.326 0.707,-0.722c0,-0.001 0,-0.002 0,-0.003c0,-0.394 -0.318,-0.719 -0.704,-0.719c-0.001,0 -0.002,0 -0.003,0l-0.575,0" style="fill:none;stroke:#fff;stroke-width:0.2px;"/><path d="M11.156,17.047c0.205,0.557 0.205,1.172 0,1.729" style="fill:none;stroke:#fff;stroke-width:0.2px;"/><path d="M20.238,15.568c-0.196,-0.506 -0.373,-1.076 -0.643,-1.614c-0.504,-1.063 -1.311,-1.995 -3.152,-1.995c-1.84,0 -2.637,0.932 -3.141,2.011" style="fill:none;stroke:#fff;stroke-width:0.2px;"/><path d="M20.591,18.517c0.364,0.174 0.761,0.263 1.163,0.259c-0.206,-0.557 -0.206,-1.172 0,-1.729" style="fill:none;stroke:#fff;stroke-width:0.2px;"/><path d="M14.156,19.547l0,3.969" style="fill:none;stroke:#fff;stroke-width:0.2px;"/><path d="M18.75,23.503l0,-3.956" style="fill:none;stroke:#fff;stroke-width:0.2px;"/><path d="M17.966,12.235c-0.48,-0.194 -0.993,-0.287 -1.51,-0.276c-0.517,-0.012 -1.031,0.082 -1.513,0.276l0.945,3.333" style="fill:none;stroke:#fff;stroke-width:0.2px;"/><path d="M14.943,12.235c-0.451,0.193 -0.846,0.501 -1.147,0.895l1.067,0.984l0,1.083" style="fill:none;stroke:#fff;stroke-width:0.2px;"/><path d="M17.966,12.235c0.452,0.193 0.847,0.501 1.147,0.895l-1.07,0.984l0,1.083" style="fill:none;stroke:#fff;stroke-width:0.2px;"/><path d="M17.086,15.351l-0.63,-3.392l-0.629,3.392l0.061,0.217" style="fill:none;stroke:#fff;stroke-width:0.2px;"/><path d="M17.59,13.57l-1.134,-1.611l-1.137,1.611" style="fill:none;stroke:#fff;stroke-width:0.2px;"/><path d="M20.164,24.405l-7.421,0c-0.194,0 -0.354,0.163 -0.354,0.361l0,0.541c0.002,0.197 0.16,0.359 0.354,0.361l7.421,0c0.192,-0.002 0.35,-0.164 0.35,-0.361l0,-0.541c0,-0.001 0,-0.003 0,-0.004c0,-0.196 -0.158,-0.357 -0.35,-0.357c0,0 0,0 0,0Z" style="fill:none;stroke:#fff;stroke-width:0.2px;"/><path d="M17.982,19.547l2.034,0c0.146,-0.006 0.275,-0.104 0.321,-0.246l0.768,-2.457l-9.317,0l0.768,2.457c0.047,0.142 0.175,0.24 0.321,0.246" style="fill:none;stroke:#fff;stroke-width:0.2px;"/><path d="M18.75,23.503l-4.594,0c-0.194,0 -0.353,0.163 -0.353,0.361l0,0.541l5.3,0l0,-0.541c0,-0.198 -0.159,-0.361 -0.353,-0.361Z" style="fill:none;stroke:#fff;stroke-width:0.2px;"/><path d="M21.291,15.568l-9.676,0c-0.015,-0.001 -0.03,-0.002 -0.045,-0.002c-0.34,0 -0.62,0.286 -0.62,0.633c0,0.347 0.28,0.633 0.62,0.633c0.015,0 0.03,0 0.045,-0.001l9.676,0c0.015,0.001 0.03,0.001 0.045,0.001c0.34,0 0.62,-0.286 0.62,-0.633c0,-0.347 -0.28,-0.633 -0.62,-0.633c-0.015,0 -0.03,0.001 -0.045,0.002Z" style="fill:none;stroke:#fff;stroke-width:0.2px;"/><path d="M14.995,19.648l0.343,3.855l2.23,0l0.344,-3.855" style="fill:none;stroke:#fff;stroke-width:0.2px;"/><path d="M16.453,16.831c0.969,0 1.767,0.814 1.767,1.804c0,0.989 -0.798,1.804 -1.767,1.804c-0.969,0 -1.767,-0.815 -1.767,-1.804c0,-0.99 0.798,-1.804 1.767,-1.804Z" style="fill:none;stroke:#fff;stroke-width:0.2px;"/><path d="M12.89,19.547l2.034,0" style="fill:none;stroke:#fff;stroke-width:0.2px;"/><path d="M11.156,18.776c0.4,0.003 0.796,-0.085 1.159,-0.256" style="fill:none;stroke:#fff;stroke-width:0.2px;"/><path d="M18.75,20.724l0,-1.177" style="fill:none;stroke:#fff;stroke-width:0.2px;"/><path d="M11.804,16.876c-0.195,0.116 -0.417,0.175 -0.642,0.171" style="fill:none;stroke:#fff;stroke-width:0.2px;"/><path d="M21.754,17.047c-0.226,0.004 -0.448,-0.056 -0.643,-0.174" style="fill:none;stroke:#fff;stroke-width:0.2px;"/></g></svg>
