<?xml version="1.0" encoding="UTF-8" standalone="no"?><!DOCTYPE svg PUBLIC "-//W3C//DTD SVG 1.1//EN" "http://www.w3.org/Graphics/SVG/1.1/DTD/svg11.dtd"><svg width="100%" height="100%" viewBox="0 0 31 31" version="1.1" xmlns="http://www.w3.org/2000/svg" xmlns:xlink="http://www.w3.org/1999/xlink" xml:space="preserve" xmlns:serif="http://www.serif.com/" style="fill-rule:evenodd;clip-rule:evenodd;stroke-linecap:round;stroke-linejoin:round;"><path d="M30.315,15.445c0,6.492 -4.128,12.018 -9.904,14.099c-4.178,1.499 -8.813,1.071 -12.645,-1.168c-4.435,-2.6 -7.413,-7.418 -7.413,-12.931c0,-8.273 6.708,-14.981 14.981,-14.981c8.274,0 14.981,6.708 14.981,14.981Z" style="fill:rgba(223,73,73,.9);fill-rule:nonzero;"/><g><path d="M24.463,14.971l-3.824,0" style="fill:none;stroke:#fff;stroke-width:0.15px;"/><path d="M25.762,16.085c0,0 0,-0.001 0,-0.002c0,-0.141 -0.167,-0.257 -0.371,-0.257c0,0 0,0 0,0l-12.047,0c0,0 0,0 0,0c-0.204,0 -0.372,0.116 -0.372,0.257c0,0.001 0,0.002 0,0.002l0,0.708c0,0 0,0.001 0,0.002c0,0.568 0.676,1.035 1.497,1.035l9.793,0c0.001,0 0.002,0 0.003,0c0.822,0 1.497,-0.467 1.497,-1.035c0,-0.001 0,-0.002 0,-0.002l0,-0.708Z" style="fill:none;stroke:#fff;stroke-width:0.15px;"/><path d="M21.301,21.531l-3.868,0c-0.089,0 -0.178,0.011 -0.262,0.033c0.201,-0.29 0.753,-1.306 0.753,-3.741l2.886,0c0,2.423 0.553,3.451 0.764,3.741c-0.087,-0.023 -0.18,-0.034 -0.273,-0.033Z" style="fill:none;stroke:#fff;stroke-width:0.15px;"/><path d="M24.818,15.147c-0.05,-0.102 -0.186,-0.172 -0.341,-0.176l-10.206,0c-0.155,0.004 -0.291,0.074 -0.341,0.176l-0.341,0.679l11.556,0l-0.327,-0.679Z" style="fill:none;stroke:#fff;stroke-width:0.15px;"/><path d="M17.897,18.678l2.937,0" style="fill:none;stroke:#fff;stroke-width:0.15px;"/><path d="M22.048,23.284c0,0.292 -0.236,0.528 -0.528,0.528l-4.309,0c-0.292,0 -0.528,-0.236 -0.528,-0.528l0,-1.225c0,-0.292 0.236,-0.528 0.528,-0.528l4.309,0c0.292,0 0.528,0.236 0.528,0.528l0,1.225Z" style="fill:none;stroke:#fff;stroke-width:0.15px;"/><g><path d="M10.633,21.059l0,1.626" style="fill:none;stroke:#fff;stroke-width:0.15px;"/><path d="M9.497,23.017l0,-2.027" style="fill:none;stroke:#fff;stroke-width:0.15px;"/><path d="M11.248,23.122c0.057,0.101 0.057,0.226 0,0.328c-0.054,0.104 -0.159,0.171 -0.274,0.173l-1.282,0c-0.11,-0.001 -0.211,-0.061 -0.268,-0.157c-0.054,-0.102 -0.054,-0.226 0,-0.328c0.332,-0.682 1.432,-0.643 1.824,-0.016Z" style="fill:none;stroke:#fff;stroke-width:0.15px;"/><path d="M8.362,20.99l0,2.027" style="fill:none;stroke:#fff;stroke-width:0.15px;"/><path d="M7.226,22.685l0,-1.626" style="fill:none;stroke:#fff;stroke-width:0.15px;"/><path d="M6.761,18.793l-0.093,1.928c-0.005,0.09 0.027,0.177 0.086,0.243c0.059,0.065 0.141,0.103 0.227,0.105l1.183,0c0.175,0 0.319,-0.148 0.319,-0.328l0.045,-1.463c0,-0.223 0.178,-0.406 0.395,-0.406c0.217,0 0.396,0.183 0.396,0.406l0.047,1.463c0,0.18 0.144,0.328 0.319,0.328l1.184,0c0.087,-0.001 0.17,-0.039 0.229,-0.105c0.058,-0.067 0.089,-0.154 0.086,-0.243l-0.092,-1.928" style="fill:none;stroke:#fff;stroke-width:0.15px;"/><path d="M11.012,17.481l0,-2.568l1.132,0l0,-0.196c-0.393,-1.933 -0.81,-2.769 -2.259,-3.248" style="fill:none;stroke:#fff;stroke-width:0.15px;"/><path d="M7.883,11.604c-1.578,0.488 -2.168,1.78 -2.168,3.113l0,0.196l1.135,0l0,2.568" style="fill:none;stroke:#fff;stroke-width:0.15px;"/><path d="M11.012,14.913l0,-1.187" style="fill:none;stroke:#fff;stroke-width:0.15px;"/><path d="M6.85,14.913l0,-1.187" style="fill:none;stroke:#fff;stroke-width:0.15px;"/><rect x="6.85" y="16.897" width="4.159" height="0.794" style="fill:none;stroke:#fff;stroke-width:0.15px;"/><rect x="8.362" y="16.897" width="1.135" height="0.794" style="fill:none;stroke:#fff;stroke-width:0.15px;"/><path d="M6.611,23.122c-0.057,0.101 -0.057,0.226 0,0.328c0.054,0.105 0.161,0.172 0.277,0.173l1.292,0c0.111,0 0.214,-0.06 0.271,-0.157c0.054,-0.102 0.054,-0.226 0,-0.328c-0.348,-0.682 -1.448,-0.643 -1.84,-0.016Z" style="fill:none;stroke:#fff;stroke-width:0.15px;"/><path d="M6.85,18.481c0,0.321 -0.256,0.584 -0.568,0.584c-0.311,0 -0.567,-0.263 -0.567,-0.584c0,0 0,-3.568 0,-3.568l1.135,0l0,3.568Z" style="fill:none;stroke:#fff;stroke-width:0.15px;"/><path d="M12.144,18.481c0.001,0.015 0.002,0.03 0.002,0.044c0,0.32 -0.256,0.584 -0.568,0.584c-0.311,0 -0.567,-0.264 -0.567,-0.584c0,-0.014 0,-0.029 0.001,-0.044l0,-3.568l1.132,0l0,3.568Z" style="fill:none;stroke:#fff;stroke-width:0.15px;"/><path d="M7.226,12.539c0.632,0.081 1.226,0.357 1.704,0.791l-0.887,-1.706c-0.143,0.051 -0.408,0.068 -0.543,0.139l-0.274,0.776Z" style="fill:none;stroke:#fff;stroke-width:0.15px;"/><path d="M10.633,12.539c-0.632,0.082 -1.226,0.357 -1.703,0.791l0.89,-1.853c0.142,0.052 0.411,0.162 0.545,0.233l0.268,0.829Z" style="fill:none;stroke:#fff;stroke-width:0.15px;"/><path d="M8.93,13.33l0,0.99" style="fill:none;stroke:#fff;stroke-width:0.15px;"/><path d="M10.444,14.52l-0.475,0.393l-0.472,-0.393l0,-0.794l0.947,0l0,0.794Z" style="fill:none;stroke:#fff;stroke-width:0.15px;"/><path d="M10.815,8.46c0.19,0.029 0.331,0.187 0.331,0.369c0,0.198 -0.165,0.363 -0.373,0.374c-0.185,0.849 -0.98,1.463 -1.893,1.463c-0.913,0 -1.708,-0.614 -1.894,-1.463c-0.207,-0.011 -0.372,-0.176 -0.372,-0.374c0,-0.182 0.141,-0.34 0.33,-0.369" style="fill:none;stroke:#fff;stroke-width:0.15px;"/><path d="M9.364,9.606c-0.292,0.188 -0.677,0.188 -0.968,0" style="fill:none;stroke:#fff;stroke-width:0.15px;"/><path d="M9.752,8.521c-0.107,-0.099 -0.28,-0.099 -0.388,0" style="fill:none;stroke:#fff;stroke-width:0.15px;"/><path d="M8.396,8.521c-0.107,-0.097 -0.278,-0.097 -0.385,0" style="fill:none;stroke:#fff;stroke-width:0.15px;"/><path d="M11.136,8.829c0,0.194 -0.159,0.357 -0.363,0.374c-0.125,0.572 -0.531,1.054 -1.091,1.296c0.159,0.284 0.21,0.612 0.145,0.928c0.584,0.191 1.133,0.473 1.486,0.954c0.141,-0.275 0.165,-0.498 0.155,-0.803l0,-3.364c0.006,-0.753 -0.357,-1.466 -0.982,-1.928c-0.637,-0.474 -1.508,-0.559 -2.233,-0.217c-0.207,-0.195 -0.487,-0.304 -0.778,-0.305c-0.635,0.001 -1.157,0.495 -1.161,1.097l0,5.802c0.675,-0.98 1.764,-1.085 1.764,-1.085c0,0 -0.327,-0.286 0,-1.084c-0.56,-0.243 -0.966,-0.725 -1.092,-1.297c-0.207,-0.01 -0.372,-0.175 -0.372,-0.373c0,-0.183 0.141,-0.34 0.33,-0.369c0.402,-0.247 0.647,-0.67 0.651,-1.124c-0.001,-0.011 -0.001,-0.022 -0.001,-0.032c0,-0.337 0.29,-0.615 0.645,-0.618c0.21,-0.007 0.402,0.117 0.472,0.305c0.029,0.085 0.098,0.152 0.187,0.18c0.589,0.178 1.34,1.22 1.937,1.297c0.176,0.041 0.301,0.193 0.301,0.366Z" style="fill:none;stroke:#fff;stroke-width:0.15px;"/><path d="M10.455,11.774c-0.2,-0.138 -0.422,-0.246 -0.658,-0.318" style="fill:none;stroke:#fff;stroke-width:0.15px;"/><path d="M20.622,10.495l0.109,-0.655c0.033,-0.125 -0.008,-0.258 -0.106,-0.341c-0.237,-0.146 -2.723,-0.223 -2.603,0.603l0.187,1.249c0.028,0.193 0.195,0.338 0.389,0.338l0.26,0" style="fill:none;stroke:#fff;stroke-width:0.15px;"/><path d="M19.825,11.685l0.266,0c0.192,0 0.357,-0.141 0.389,-0.331l0.029,-0.184" style="fill:none;stroke:#fff;stroke-width:0.15px;"/><path d="M20.229,12.478c0,-0.217 -0.178,-0.397 -0.393,-0.397l-0.984,0c0,0 -0.001,0 -0.001,0c-0.216,0 -0.393,0.18 -0.393,0.397c0,0 0,0 0,0l1.771,0Z" style="fill:none;stroke:#fff;stroke-width:0.15px;"/><path d="M20.683,10.114c-0.369,0.07 -0.638,0.397 -0.638,0.776c0,0.263 0.131,0.51 0.349,0.656c0.051,-0.06 0.083,-0.134 0.092,-0.213" style="fill:none;stroke:#fff;stroke-width:0.15px;"/><path d="M19.836,11.586c0,0.272 -0.222,0.495 -0.492,0.495c-0.27,0 -0.492,-0.223 -0.492,-0.495c0,-0.272 0.222,-0.496 0.492,-0.496c0.27,0 0.492,0.224 0.492,0.496Z" style="fill:none;stroke:#fff;stroke-width:0.15px;"/><rect x="20.032" y="7.916" width="0.59" height="0.793" style="fill:none;stroke:#fff;stroke-width:0.15px;"/><path d="M20.622,7.916l-0.59,0l0,-0.291c0,-0.164 0.133,-0.298 0.295,-0.298c0.162,0 0.295,0.134 0.295,0.298l0,0.291Z" style="fill:none;stroke:#fff;stroke-width:0.15px;"/><path d="M19.612,7.705l-0.59,0.059l0.079,0.794l0.589,-0.06l-0.078,-0.793Z" style="fill:none;stroke:#fff;stroke-width:0.15px;"/><path d="M19.571,7.705l-0.589,0.057l-0.027,-0.292c-0.001,-0.01 -0.001,-0.019 -0.001,-0.029c0,-0.163 0.133,-0.298 0.294,-0.298c0.151,0 0.279,0.117 0.294,0.269l0.029,0.293Z" style="fill:none;stroke:#fff;stroke-width:0.15px;"/><path d="M18.121,9.324l-0.515,0.291l-0.234,-0.433l0.514,-0.291l0.235,0.433Z" style="fill:none;stroke:#fff;stroke-width:0.15px;"/><path d="M17.886,8.891l-0.514,0.291l-0.145,-0.258c-0.025,-0.044 -0.038,-0.095 -0.038,-0.146c0,-0.163 0.134,-0.298 0.296,-0.298c0.106,0 0.205,0.059 0.257,0.152l0.144,0.259Z" style="fill:none;stroke:#fff;stroke-width:0.15px;"/><path d="M18.628,8.055l-0.571,0.152l0.168,0.644l0.571,-0.151l-0.168,-0.645Z" style="fill:none;stroke:#fff;stroke-width:0.15px;"/><path d="M18.627,8.059l-0.579,0.146l-0.073,-0.292c-0.006,-0.023 -0.009,-0.048 -0.009,-0.073c0,-0.162 0.132,-0.296 0.294,-0.296c0.134,0 0.251,0.093 0.284,0.224l0.083,0.291Z" style="fill:none;stroke:#fff;stroke-width:0.15px;"/><path d="M20.622,9.493l0,-0.783l-0.59,0l0,0.697c0.2,-0.003 0.399,0.026 0.59,0.086Z" style="fill:none;stroke:#fff;stroke-width:0.15px;"/><path d="M18.556,9.999c-0.054,0 -0.098,0.045 -0.098,0.099c0,0.054 0.044,0.099 0.098,0.099c0.054,0 0.098,-0.045 0.098,-0.099c0,-0.054 -0.044,-0.099 -0.098,-0.099c0,0 0,0 0,0Z" style="fill:#4550e5;fill-rule:nonzero;stroke:#fff;stroke-width:0.15px;stroke-linecap:butt;stroke-miterlimit:1.41421;"/><path d="M20.13,9.701c-0.053,0 -0.098,0.045 -0.098,0.1c0,0.054 0.045,0.099 0.098,0.099c0.054,0 0.099,-0.045 0.099,-0.099c0,-0.055 -0.045,-0.1 -0.099,-0.1Z" style="fill:#4550e5;fill-rule:nonzero;stroke:#fff;stroke-width:0.15px;stroke-linecap:butt;stroke-miterlimit:1.41421;"/><path d="M18.556,10.786c-0.054,0 -0.098,0.045 -0.098,0.1c0,0.054 0.044,0.099 0.098,0.099c0.054,0 0.098,-0.045 0.098,-0.099c0,-0.055 -0.044,-0.1 -0.098,-0.1c0,0 0,0 0,0Z" style="fill:#4550e5;fill-rule:nonzero;stroke:#fff;stroke-width:0.15px;stroke-linecap:butt;stroke-miterlimit:1.41421;"/><path d="M20.917,10.396c-0.002,0 -0.005,-0.001 -0.007,-0.001c-0.266,0 -0.485,0.221 -0.485,0.489c0,0.003 0,0.005 0,0.007c0,0.272 0.222,0.496 0.492,0.496c0.252,0 0.597,-0.291 0.976,-0.656l-0.481,-0.487c-0.152,0.088 -0.321,0.14 -0.495,0.152Z" style="fill:none;stroke:#fff;stroke-width:0.15px;"/><path d="M22.597,10.079c0.053,-0.044 0.078,-0.114 0.067,-0.182c-0.013,-0.066 -0.058,-0.122 -0.12,-0.146c-0.197,-0.08 -0.421,-0.047 -0.587,0.086c-0.031,0.032 -0.063,0.061 -0.093,0.09l0.434,0.438c0.095,-0.107 0.198,-0.198 0.299,-0.286Z" style="fill:none;stroke:#fff;stroke-width:0.15px;"/><path d="M21.864,9.92c-0.137,0.127 -0.289,0.236 -0.452,0.324l0.481,0.487l0.399,-0.382l-0.428,-0.429Z" style="fill:none;stroke:#fff;stroke-width:0.15px;"/><path d="M19.76,9.402l-0.112,-0.908l-0.587,0.058l0.079,0.885c0.206,-0.023 0.413,-0.034 0.62,-0.035Z" style="fill:none;stroke:#fff;stroke-width:0.15px;"/><path d="M19.013,9.453l-0.22,-0.749l-0.57,0.146l0.226,0.729c0.183,-0.062 0.372,-0.104 0.564,-0.126Z" style="fill:none;stroke:#fff;stroke-width:0.15px;"/><path d="M18.025,10.098c-0.029,-0.195 0.09,-0.34 0.289,-0.446l-0.193,-0.324l-0.515,0.292l0.468,0.812l-0.049,-0.334Z" style="fill:none;stroke:#fff;stroke-width:0.15px;"/><path d="M20.558,12.835c-0.019,-0.201 -0.189,-0.356 -0.39,-0.357l-1.648,0c-0.201,0 -0.372,0.155 -0.392,0.357l-0.145,1.511c-0.009,0.07 0.033,0.136 0.099,0.158c0.819,0.294 1.715,0.294 2.534,0c0.066,-0.022 0.108,-0.088 0.099,-0.158l-0.157,-1.511Z" style="fill:none;stroke:#fff;stroke-width:0.15px;"/></g><path d="M19.344,11.52c0,0 0,0 0,0c0.041,0 0.074,0.034 0.074,0.075c0,0 0,0.001 0,0.001c0,0.042 -0.034,0.076 -0.075,0.076c-0.041,0 -0.075,-0.034 -0.075,-0.076c0,-0.041 0.034,-0.076 0.075,-0.076c0,0 0.001,0 0.001,0Z" style="fill:none;stroke:#fff;stroke-width:0.15px;"/></g></svg>