<?xml version="1.0" encoding="UTF-8" standalone="no"?><!DOCTYPE svg PUBLIC "-//W3C//DTD SVG 1.1//EN" "http://www.w3.org/Graphics/SVG/1.1/DTD/svg11.dtd"><svg width="100%" height="100%" viewBox="0 0 120 72" version="1.1" xmlns="http://www.w3.org/2000/svg" xmlns:xlink="http://www.w3.org/1999/xlink" xml:space="preserve" xmlns:serif="http://www.serif.com/" style="fill-rule:evenodd;clip-rule:evenodd;stroke-linejoin:round;stroke-miterlimit:1.41421;"><path d="M22.012,64.114l-0.055,-1.099c-0.012,-0.269 -0.005,-0.575 0,-0.833l-0.012,0c-0.142,0.258 -0.299,0.569 -0.458,0.833l-0.667,1.099l1.192,0Zm-1.503,0.615l-0.759,1.262l-0.872,0l2.745,-4.457l1.081,0l0.252,4.457l-0.91,0l-0.064,-1.262l-1.473,0Z" style="fill:#11489f;fill-rule:nonzero;"/><path d="M24.722,61.297l0.853,0l-1.325,4.694l-0.856,0l1.328,-4.694Z" style="fill:#11489f;fill-rule:nonzero;"/><path d="M27.524,65.893c-0.202,0.077 -0.58,0.171 -1.001,0.171c-1.047,0 -1.546,-0.648 -1.264,-1.646c0.273,-0.965 1.175,-1.719 2.353,-1.719c0.309,0 0.607,0.067 0.776,0.152l-0.322,0.607c-0.124,-0.059 -0.303,-0.125 -0.606,-0.125c-0.647,0 -1.162,0.457 -1.323,1.045c-0.184,0.661 0.156,1.038 0.736,1.038c0.295,0 0.516,-0.058 0.701,-0.125l-0.05,0.602Z" style="fill:#11489f;fill-rule:nonzero;"/><path d="M30.206,64.418c-0.596,-0.013 -1.205,0.112 -1.342,0.601c-0.09,0.319 0.082,0.462 0.352,0.462c0.337,0 0.646,-0.211 0.787,-0.441c0.036,-0.059 0.061,-0.127 0.078,-0.179l0.125,-0.443Zm0.6,0.8c-0.084,0.291 -0.148,0.576 -0.17,0.773l-0.766,0l0.047,-0.356l-0.02,0c-0.279,0.25 -0.68,0.428 -1.114,0.428c-0.676,0 -0.921,-0.468 -0.785,-0.958c0.231,-0.812 1.097,-1.223 2.335,-1.217l0.017,-0.051c0.06,-0.213 0.068,-0.563 -0.524,-0.563c-0.33,0 -0.704,0.1 -0.971,0.239l-0.015,-0.53c0.29,-0.145 0.764,-0.284 1.293,-0.284c1.075,0 1.2,0.656 1.002,1.355l-0.329,1.164Z" style="fill:#11489f;fill-rule:nonzero;"/><path d="M32.67,61.297l0.854,0l-1.325,4.694l-0.854,0l1.325,-4.694Z" style="fill:#11489f;fill-rule:nonzero;"/><path d="M35.753,64.114c0.019,-0.067 0.036,-0.146 0.039,-0.211c0.014,-0.319 -0.18,-0.576 -0.567,-0.576c-0.544,0 -0.978,0.463 -1.15,1.064c-0.164,0.59 0.018,1.019 0.554,1.019c0.346,0 0.712,-0.225 0.893,-0.576c0.042,-0.073 0.07,-0.153 0.097,-0.237l0.134,-0.483Zm1.643,-2.817l-1.069,3.789c-0.094,0.33 -0.182,0.687 -0.23,0.905l-0.756,0l0.108,-0.51l-0.013,0c-0.3,0.358 -0.77,0.583 -1.26,0.583c-0.798,0 -1.248,-0.654 -0.969,-1.646c0.299,-1.078 1.183,-1.719 1.988,-1.719c0.463,0 0.74,0.185 0.824,0.423l0.016,0l0.514,-1.825l0.847,0Z" style="fill:#11489f;fill-rule:nonzero;"/><path d="M39.606,61.376l-1.124,0.978l-0.586,0l0.877,-0.978l0.833,0Zm-2.764,4.615l0.91,-3.219l0.854,0l-0.91,3.219l-0.854,0Z" style="fill:#11489f;fill-rule:nonzero;"/><path d="M40.69,64.418c-0.594,-0.013 -1.205,0.112 -1.341,0.601c-0.092,0.319 0.082,0.462 0.351,0.462c0.337,0 0.646,-0.211 0.786,-0.441c0.039,-0.059 0.064,-0.127 0.076,-0.179l0.128,-0.443Zm0.6,0.8c-0.082,0.291 -0.148,0.576 -0.17,0.773l-0.765,0l0.045,-0.356l-0.018,0c-0.279,0.25 -0.682,0.428 -1.115,0.428c-0.676,0 -0.922,-0.468 -0.785,-0.958c0.23,-0.812 1.097,-1.223 2.336,-1.217l0.015,-0.051c0.06,-0.213 0.069,-0.563 -0.523,-0.563c-0.332,0 -0.704,0.1 -0.969,0.239l-0.018,-0.53c0.289,-0.145 0.762,-0.284 1.293,-0.284c1.075,0 1.201,0.656 1.002,1.355l-0.328,1.164Z" style="fill:#11489f;fill-rule:nonzero;"/><path d="M45.893,64.114c0.02,-0.067 0.034,-0.146 0.04,-0.211c0.012,-0.319 -0.182,-0.576 -0.568,-0.576c-0.545,0 -0.978,0.463 -1.148,1.064c-0.167,0.59 0.015,1.019 0.554,1.019c0.343,0 0.709,-0.225 0.889,-0.576c0.041,-0.073 0.073,-0.153 0.097,-0.237l0.136,-0.483Zm1.642,-2.817l-1.068,3.789c-0.092,0.33 -0.182,0.687 -0.229,0.905l-0.758,0l0.109,-0.51l-0.012,0c-0.301,0.358 -0.772,0.583 -1.26,0.583c-0.8,0 -1.248,-0.654 -0.971,-1.646c0.301,-1.078 1.184,-1.719 1.989,-1.719c0.463,0 0.741,0.185 0.824,0.423l0.014,0l0.514,-1.825l0.848,0Z" style="fill:#11489f;fill-rule:nonzero;"/><path d="M49.605,64.042c0.092,-0.298 0.092,-0.788 -0.472,-0.788c-0.523,0 -0.874,0.456 -1,0.788l1.472,0Zm-1.634,0.567c-0.145,0.581 0.261,0.832 0.798,0.832c0.394,0 0.691,-0.051 0.972,-0.144l-0.035,0.563c-0.322,0.11 -0.747,0.204 -1.229,0.204c-1.09,0 -1.548,-0.648 -1.268,-1.634c0.253,-0.891 1.055,-1.731 2.127,-1.731c1.098,0 1.205,0.86 1.005,1.567c-0.042,0.152 -0.09,0.27 -0.123,0.343l-2.247,0Z" style="fill:#11489f;fill-rule:nonzero;"/><path d="M55.499,65.787c-0.327,0.106 -0.947,0.251 -1.567,0.251c-0.785,0 -1.323,-0.192 -1.649,-0.597c-0.308,-0.376 -0.383,-0.964 -0.185,-1.638c0.396,-1.406 1.702,-2.313 3.239,-2.313c0.57,0 0.986,0.111 1.171,0.211l-0.371,0.654c-0.225,-0.106 -0.51,-0.193 -1,-0.193c-0.992,0 -1.846,0.565 -2.141,1.601c-0.284,1.012 0.194,1.614 1.158,1.614c0.303,0 0.54,-0.039 0.664,-0.094l0.318,-1.109l-0.822,0l0.183,-0.642l1.639,0l-0.637,2.255Z" style="fill:#11489f;fill-rule:nonzero;"/><path d="M59.433,65.026c-0.108,0.384 -0.184,0.702 -0.245,0.965l-0.745,0l0.097,-0.49l-0.012,0c-0.21,0.232 -0.635,0.563 -1.234,0.563c-0.616,0 -1.072,-0.35 -0.777,-1.401l0.535,-1.891l0.848,0l-0.494,1.752c-0.154,0.536 -0.07,0.88 0.377,0.88c0.337,0 0.624,-0.232 0.77,-0.437c0.05,-0.072 0.093,-0.159 0.121,-0.252l0.547,-1.943l0.849,0l-0.637,2.254Z" style="fill:#11489f;fill-rule:nonzero;"/><path d="M62.161,64.418c-0.597,-0.013 -1.203,0.112 -1.342,0.601c-0.091,0.319 0.082,0.462 0.353,0.462c0.336,0 0.645,-0.211 0.785,-0.441c0.039,-0.059 0.063,-0.127 0.078,-0.179l0.126,-0.443Zm0.599,0.8c-0.079,0.291 -0.148,0.576 -0.169,0.773l-0.762,0l0.045,-0.356l-0.023,0c-0.276,0.25 -0.679,0.428 -1.113,0.428c-0.675,0 -0.92,-0.468 -0.783,-0.958c0.229,-0.812 1.095,-1.223 2.333,-1.217l0.017,-0.051c0.059,-0.213 0.068,-0.563 -0.524,-0.563c-0.333,0 -0.704,0.1 -0.97,0.239l-0.016,-0.53c0.289,-0.145 0.763,-0.284 1.294,-0.284c1.075,0 1.2,0.656 1.002,1.355l-0.331,1.164Z" style="fill:#11489f;fill-rule:nonzero;"/><path d="M64.672,62.772l0.116,1.724c0.017,0.199 0.017,0.444 0.009,0.629l0.023,0c0.105,-0.185 0.238,-0.423 0.355,-0.634l1.012,-1.719l0.909,0l-1.46,2.196c-0.802,1.203 -1.261,1.736 -1.755,2.068c-0.413,0.285 -0.787,0.39 -1.007,0.415l0.001,-0.688c0.154,-0.03 0.355,-0.104 0.56,-0.223c0.185,-0.098 0.425,-0.29 0.604,-0.508c0.051,-0.061 0.084,-0.108 0.097,-0.147c0.01,-0.034 0.017,-0.079 -0.002,-0.158l-0.393,-2.955l0.931,0Z" style="fill:#11489f;fill-rule:nonzero;"/><path d="M68.717,64.418c-0.594,-0.013 -1.202,0.112 -1.339,0.601c-0.09,0.319 0.083,0.462 0.352,0.462c0.335,0 0.644,-0.211 0.785,-0.441c0.038,-0.059 0.064,-0.127 0.077,-0.179l0.125,-0.443Zm0.603,0.8c-0.083,0.291 -0.15,0.576 -0.171,0.773l-0.764,0l0.044,-0.356l-0.019,0c-0.28,0.25 -0.68,0.428 -1.114,0.428c-0.676,0 -0.923,-0.468 -0.784,-0.958c0.23,-0.812 1.095,-1.223 2.335,-1.217l0.016,-0.051c0.061,-0.213 0.068,-0.563 -0.525,-0.563c-0.329,0 -0.702,0.1 -0.969,0.239l-0.016,-0.53c0.29,-0.145 0.763,-0.284 1.291,-0.284c1.076,0 1.201,0.656 1.003,1.355l-0.327,1.164Z" style="fill:#11489f;fill-rule:nonzero;"/><path d="M72.638,64.1c0.017,-0.066 0.032,-0.137 0.035,-0.198c0.011,-0.304 -0.185,-0.562 -0.563,-0.562c-0.545,0 -0.982,0.443 -1.151,1.051c-0.167,0.589 0.003,1.03 0.539,1.03c0.345,0 0.688,-0.209 0.876,-0.533c0.049,-0.08 0.09,-0.173 0.114,-0.252l0.15,-0.536Zm-0.409,1.447l-0.013,0c-0.29,0.313 -0.696,0.517 -1.187,0.517c-0.751,0 -1.229,-0.628 -0.943,-1.635c0.331,-1.176 1.274,-1.73 1.99,-1.73c0.471,0 0.747,0.192 0.839,0.496l0.011,0.007l0.144,-0.43l0.818,0c-0.096,0.29 -0.197,0.594 -0.292,0.932l-1.015,3.597l-0.848,0l0.496,-1.754Z" style="fill:#11489f;fill-rule:nonzero;"/><path d="M76.998,65.026c-0.107,0.384 -0.183,0.702 -0.245,0.965l-0.743,0l0.096,-0.49l-0.014,0c-0.21,0.232 -0.635,0.563 -1.233,0.563c-0.613,0 -1.071,-0.35 -0.775,-1.401l0.533,-1.891l0.849,0l-0.495,1.752c-0.152,0.536 -0.069,0.88 0.378,0.88c0.338,0 0.624,-0.232 0.771,-0.437c0.047,-0.072 0.093,-0.159 0.119,-0.252l0.551,-1.943l0.846,0l-0.638,2.254Z" style="fill:#11489f;fill-rule:nonzero;"/><path d="M79.569,61.873c-0.066,0.245 -0.309,0.436 -0.603,0.436c-0.283,0 -0.415,-0.191 -0.349,-0.436c0.073,-0.252 0.32,-0.443 0.604,-0.443c0.288,0 0.413,0.191 0.348,0.443m-2.065,4.118l0.91,-3.219l0.853,0l-0.909,3.219l-0.854,0Z" style="fill:#11489f;fill-rule:nonzero;"/><path d="M80.456,61.297l0.854,0l-1.325,4.694l-0.854,0l1.325,-4.694Z" style="fill:#11489f;fill-rule:nonzero;"/><path d="M98.921,59.353c-2.413,-0.353 -2.482,-0.507 -3.591,-0.479c-1.569,0.04 -4.067,0.709 -5.42,1.049l-0.224,0.038l-0.966,-3.358l-2.19,3.922l-3.794,0.776l2.43,1.659l-3.185,5.696l5.532,-3.993l4.505,3.258l-0.344,-1.176l-0.131,-0.492c0,0 -0.368,-0.898 0.5,-1.194c0.864,-0.295 2.209,0.078 3.573,-0.021c0.821,-0.06 2.072,-0.465 3.561,-1.502c-0.342,0.112 -0.714,0.224 -1.119,0.326c-1.941,0.49 -3.611,-0.543 -5.13,-0.522c-2.458,0.036 -2.547,1.629 -2.517,1.969c-0.006,-0.008 0.086,0.355 0.086,0.355l-2.825,-1.939l-3.567,2.552l1.968,-3.646l-1.773,-1.111l2.685,-0.581l1.525,-2.821l0.636,2.47l4.14,-0.877l-0.705,0.497l-1.357,0.975c0.349,-0.164 0.748,-0.315 1.198,-0.429c0.026,-0.008 0.048,-0.013 0.075,-0.018c0.034,-0.01 0.076,-0.019 0.114,-0.027c0.031,-0.007 0.063,-0.015 0.096,-0.022c0.037,-0.007 0.07,-0.015 0.107,-0.021c0.042,-0.009 0.088,-0.017 0.131,-0.023c0.036,-0.006 0.072,-0.014 0.111,-0.019c0.059,-0.009 0.12,-0.018 0.179,-0.025c0.029,-0.004 0.058,-0.006 0.087,-0.011c0.049,-0.004 0.097,-0.01 0.146,-0.014c0.03,-0.003 0.061,-0.006 0.09,-0.009c0.053,-0.002 0.103,-0.007 0.16,-0.01c0.023,-0.001 0.053,-0.003 0.08,-0.004c0.08,-0.004 0.159,-0.006 0.243,-0.007c2.427,-0.024 3.588,0.312 5.315,0.059c2.002,-0.295 4.127,-1.791 4.864,-2.446l0.003,-0.002c0,0 -2.603,1.596 -5.302,1.198" style="fill:#11489f;fill-rule:nonzero;"/><path d="M96.209,62.763l-0.31,-0.252l-0.511,0.203l0.355,-0.351l-0.217,-0.24l0.416,0.033l0.312,-0.359l-0.059,0.373l0.434,0.02l-0.445,0.2l0.025,0.373Zm-1.539,-0.192l-0.352,-0.26l-0.535,0.256l0.357,-0.407l-0.251,-0.256l0.449,0.011l0.306,-0.415l-0.034,0.417l0.465,-0.003l-0.461,0.249l0.056,0.408Zm-1.766,-0.398l0.144,0.368l-0.403,-0.166l-0.471,0.352l0.263,-0.457l-0.302,-0.181l0.444,-0.086l0.213,-0.453l0.056,0.396l0.46,-0.104l-0.404,0.331Zm-0.11,-0.857c-0.032,0.002 -0.066,0.006 -0.097,0.01c-0.008,0 -0.011,0 -0.015,0.002c-0.03,0.004 -0.059,0.007 -0.089,0.011c-0.006,0 -0.012,0.004 -0.02,0.004c-0.029,0.004 -0.056,0.01 -0.087,0.014c-0.007,0.001 -0.017,0.003 -0.023,0.003c-0.03,0.007 -0.057,0.011 -0.086,0.016c-0.009,0.003 -0.02,0.006 -0.029,0.008c-0.027,0.006 -0.056,0.011 -0.083,0.018c-0.008,0.002 -0.019,0.005 -0.031,0.008c-0.028,0.007 -0.055,0.014 -0.083,0.021c-0.013,0.004 -0.023,0.006 -0.035,0.008c-0.027,0.009 -0.054,0.016 -0.081,0.025c-0.013,0.003 -0.025,0.007 -0.037,0.011c-0.028,0.006 -0.054,0.015 -0.08,0.024c-0.015,0.003 -0.025,0.008 -0.039,0.012c-0.027,0.009 -0.055,0.017 -0.081,0.027c-0.011,0.005 -0.029,0.011 -0.041,0.016c-0.025,0.007 -0.05,0.017 -0.076,0.026c-0.014,0.006 -0.031,0.012 -0.045,0.018c-0.023,0.009 -0.047,0.019 -0.07,0.028c-0.018,0.008 -0.034,0.015 -0.051,0.021c-0.022,0.009 -0.045,0.019 -0.066,0.028c-0.017,0.01 -0.036,0.017 -0.055,0.024c-0.02,0.01 -0.04,0.019 -0.06,0.029c-0.02,0.008 -0.039,0.017 -0.058,0.026c-0.02,0.008 -0.04,0.018 -0.055,0.028c-0.022,0.009 -0.042,0.019 -0.063,0.032c-0.017,0.008 -0.033,0.016 -0.049,0.025c-0.021,0.012 -0.043,0.023 -0.066,0.037c-0.014,0.006 -0.028,0.015 -0.041,0.024c-0.024,0.014 -0.048,0.026 -0.073,0.041c-0.01,0.005 -0.017,0.013 -0.03,0.019c-0.026,0.016 -0.053,0.032 -0.08,0.047c-0.003,0.004 -0.008,0.009 -0.012,0.01c-0.307,0.204 -0.576,0.443 -0.754,0.716l-0.001,0c-0.021,0.03 -0.041,0.062 -0.058,0.092c0,0.001 -0.001,0.003 -0.001,0.004c-0.018,0.03 -0.034,0.062 -0.05,0.092l0,0.005c-0.016,0.03 -0.028,0.063 -0.04,0.093c0,0.002 -0.003,0.004 -0.005,0.006c-0.009,0.031 -0.021,0.064 -0.031,0.097c0,0 -0.002,0.001 -0.002,0.003c-0.009,0.033 -0.018,0.066 -0.025,0.101l0.017,0.066l0.099,0.372l0.148,0.567c0.002,-0.003 0.003,-0.007 0.006,-0.008c0.017,-0.041 0.04,-0.084 0.067,-0.13c0.005,-0.003 0.008,-0.009 0.009,-0.014c0.01,-0.014 0.021,-0.031 0.028,-0.045c0.002,-0.002 0.004,-0.005 0.005,-0.008c0.02,-0.029 0.04,-0.057 0.061,-0.087c0.006,-0.008 0.011,-0.013 0.015,-0.018c0.01,-0.016 0.022,-0.03 0.033,-0.044c0.01,-0.009 0.013,-0.015 0.021,-0.023c0.02,-0.026 0.043,-0.051 0.067,-0.079c0.007,-0.006 0.014,-0.013 0.022,-0.021c0.014,-0.013 0.027,-0.029 0.043,-0.042c0.01,-0.009 0.02,-0.018 0.031,-0.028c0.011,-0.013 0.027,-0.026 0.042,-0.042c0.015,-0.012 0.03,-0.027 0.048,-0.04c0.021,-0.017 0.042,-0.037 0.066,-0.052c0.015,-0.012 0.028,-0.024 0.043,-0.035c0.016,-0.011 0.032,-0.024 0.051,-0.036c0.016,-0.011 0.034,-0.024 0.054,-0.037c0.024,-0.018 0.052,-0.036 0.081,-0.052c0.02,-0.015 0.04,-0.024 0.062,-0.037c0.018,-0.01 0.038,-0.022 0.056,-0.034c0.023,-0.011 0.042,-0.021 0.064,-0.032c0.02,-0.013 0.039,-0.023 0.06,-0.033c0.038,-0.018 0.077,-0.038 0.116,-0.054c0.021,-0.01 0.042,-0.02 0.065,-0.029c0.025,-0.012 0.051,-0.022 0.076,-0.033c0.023,-0.009 0.048,-0.019 0.073,-0.028c0.036,-0.014 0.073,-0.027 0.114,-0.041c0.03,-0.011 0.06,-0.022 0.091,-0.031c0.033,-0.01 0.065,-0.022 0.101,-0.032c0.023,-0.007 0.054,-0.016 0.08,-0.025c0.038,-0.009 0.074,-0.018 0.11,-0.028c0.031,-0.008 0.057,-0.015 0.087,-0.022c0.053,-0.013 0.108,-0.024 0.164,-0.036c0.027,-0.007 0.054,-0.011 0.084,-0.018c0.043,-0.007 0.088,-0.016 0.132,-0.023c0.027,-0.005 0.053,-0.01 0.081,-0.015c0.068,-0.01 0.139,-0.022 0.212,-0.03c0.022,-0.003 0.047,-0.005 0.071,-0.008c0.058,-0.007 0.116,-0.015 0.175,-0.02c0.027,-0.002 0.054,-0.006 0.081,-0.009c0.083,-0.006 0.168,-0.013 0.256,-0.017c1.651,-0.101 2.938,0.525 4.718,0.172c2.228,-0.439 4.129,-2.09 4.379,-2.392l-0.013,0.023c0.038,-0.041 0.072,-0.082 0.108,-0.125c-0.841,0.48 -2.287,1.174 -3.744,1.283c-2.569,0.188 -3.842,-0.556 -5.962,-0.4" style="fill:#11489f;fill-rule:nonzero;"/><path d="M98.936,29.155c0.247,0.082 0.463,-0.04 0.475,-0.269l0.25,-4.09c0.014,-0.23 -0.099,-0.264 -0.252,-0.075l-2.659,3.286c-0.151,0.187 -0.074,0.407 0.174,0.489l2.012,0.659Z" style="fill:#00b6ed;fill-rule:nonzero;"/><path d="M100.526,30.477c-0.252,-0.071 -0.473,0.057 -0.493,0.286l-0.079,0.927c-0.02,0.228 0.177,0.389 0.438,0.356l3.469,-0.428c0.261,-0.032 0.271,-0.117 0.019,-0.189l-3.354,-0.952Z" style="fill:#7acaf1;fill-rule:nonzero;"/><path d="M94.321,29.071c0.092,-0.215 -0.033,-0.46 -0.278,-0.545l-4.476,-1.548c-0.247,-0.085 -0.29,-0.025 -0.1,0.133l3.851,3.184c0.191,0.159 0.424,0.112 0.517,-0.102l0.486,-1.122Z" style="fill:#7acaf1;fill-rule:nonzero;"/><path d="M93.424,32.631c-0.164,-0.179 -0.446,-0.189 -0.625,-0.02l-4.418,4.141c-0.18,0.168 -0.132,0.224 0.106,0.124l5.929,-2.498c0.237,-0.1 0.297,-0.329 0.133,-0.509l-1.125,-1.238Z" style="fill:#11489f;fill-rule:nonzero;"/><path d="M97.461,34.425c-0.233,0.11 -0.343,0.374 -0.245,0.588l1.926,4.24c0.096,0.214 0.173,0.201 0.171,-0.029l-0.059,-5.229c-0.004,-0.23 -0.196,-0.327 -0.429,-0.217l-1.364,0.647Z" style="fill:#00b6ed;fill-rule:nonzero;"/><path d="M70.183,55.19c-0.02,-1.03 0.075,-1.989 0.285,-2.872c0.158,-0.662 0.446,-1.501 0.861,-2.518c1.438,-3.743 3.412,-7.946 5.926,-12.607l0.279,-0.526c0.032,-0.032 0.03,-0.063 -0.008,-0.094c-0.04,-0.029 -0.062,-0.076 -0.067,-0.138l-1.39,0.24c-0.107,0.005 -0.303,0.043 -0.586,0.116c-0.215,0.008 -0.419,-0.038 -0.609,-0.142c-0.19,-0.101 -0.31,-0.229 -0.359,-0.384l-0.072,-0.185c-0.027,-0.311 0.132,-0.552 0.479,-0.722c0.24,-0.134 0.665,-0.243 1.272,-0.329c0.388,-0.108 1.012,-0.21 1.871,-0.306c0.496,-0.112 0.821,-0.312 0.978,-0.599c0.393,-0.859 0.852,-1.58 1.38,-2.163c0.327,-0.388 0.542,-0.614 0.644,-0.681c0.307,-0.2 0.605,-0.304 0.893,-0.315c0.252,-0.01 0.455,0.029 0.608,0.118c0.524,0.199 0.812,0.578 0.862,1.139c-0.041,0.377 -0.087,0.66 -0.142,0.85c-0.12,0.286 -0.218,0.603 -0.294,0.95c0.113,0.058 0.233,0.084 0.358,0.079c0.126,-0.004 0.207,-0.007 0.243,-0.009c1.004,-0.1 1.791,-0.192 2.363,-0.277c0.325,-0.012 0.561,0.011 0.71,0.067c0.436,0.015 0.671,0.226 0.708,0.631l0.008,0.093c0.023,0.249 -0.158,0.46 -0.541,0.63c-0.138,0.069 -0.387,0.109 -0.747,0.122c-1.107,0.167 -2.217,0.303 -3.327,0.407c-0.391,0.078 -0.649,0.229 -0.774,0.451c-1.036,2.167 -1.831,3.792 -2.385,4.875c-0.245,0.51 -0.748,1.552 -1.51,3.129c-0.765,1.577 -1.428,3.049 -1.995,4.415c-0.297,0.699 -0.708,1.778 -1.228,3.236l-0.774,1.67c-0.546,1.178 -0.97,1.991 -1.274,2.44c-0.304,0.449 -0.671,0.683 -1.103,0.699c-0.145,0.006 -0.33,-0.035 -0.554,-0.12c-0.676,-0.287 -1.006,-0.744 -0.989,-1.37" style="fill:#11489f;fill-rule:nonzero;"/><path d="M86.439,52.653l-0.017,-0.187c-0.028,-0.311 0.005,-0.751 0.099,-1.317c0.413,-1.861 1.099,-3.888 2.061,-6.081l0.262,-0.714c-0.174,0.069 -0.341,0.232 -0.498,0.488c-0.984,1.132 -2.008,2.42 -3.073,3.868c-0.549,0.74 -1.074,1.324 -1.579,1.748c-0.434,0.423 -0.839,0.736 -1.219,0.938c-0.415,0.203 -0.803,0.312 -1.164,0.325c-0.54,0.021 -1.023,-0.118 -1.447,-0.414c-0.425,-0.296 -0.714,-0.708 -0.869,-1.234c-0.106,-0.371 -0.168,-0.665 -0.187,-0.884c-0.037,-0.405 -0.018,-0.797 0.057,-1.175c0.329,-2.795 1.396,-5.415 3.204,-7.86c0.453,-0.611 0.968,-1.099 1.552,-1.466c0.373,-0.264 0.776,-0.405 1.209,-0.421c0.51,0.044 0.889,0.233 1.136,0.567c0.119,0.121 0.187,0.275 0.203,0.461c0.017,0.187 -0.056,0.394 -0.216,0.618c-0.975,1.226 -1.753,2.545 -2.331,3.958c-0.58,1.414 -1.079,3.019 -1.497,4.817c-0.085,0.254 -0.088,0.426 -0.007,0.517c0.21,-0.071 0.445,-0.267 0.706,-0.59c1.327,-1.332 2.874,-3.047 4.639,-5.147c0.848,-1.033 1.503,-1.793 1.967,-2.279l3.275,-4.017c0.355,-0.482 0.793,-0.639 1.315,-0.471c0.554,0.135 0.821,0.5 0.803,1.095c-0.016,0.219 -0.107,0.63 -0.271,1.23c-0.807,2.719 -1.628,5.251 -2.469,7.598c-0.639,1.744 -1.177,3.421 -1.61,5.032l-0.387,1.141c-0.12,0.285 -0.315,0.527 -0.587,0.725c-0.335,0.294 -0.719,0.449 -1.151,0.466c-0.289,0.01 -0.507,-0.012 -0.657,-0.069c-0.672,-0.225 -1.089,-0.648 -1.252,-1.266" style="fill:#11489f;fill-rule:nonzero;"/><path d="M33.659,40.323l0,1.182l4.743,-0.001c0.18,0 0.34,0.061 0.48,0.182c0.14,0.122 0.211,0.275 0.211,0.459l0,1.268c0,0.166 -0.071,0.314 -0.21,0.445c-0.14,0.131 -0.301,0.197 -0.479,0.197l-4.745,0l0,1.298l4.98,-0.001c0.191,0 0.356,0.061 0.496,0.183c0.14,0.121 0.211,0.279 0.211,0.473l0,1.255c0,0.174 -0.07,0.327 -0.21,0.459c-0.141,0.131 -0.306,0.197 -0.496,0.197l-7.942,0.001c-0.191,0 -0.356,-0.066 -0.497,-0.197c-0.14,-0.132 -0.21,-0.285 -0.21,-0.459l0,-0.045l0,-1.21l0,-6.327l0,-1.268c0,-0.185 0.069,-0.338 0.21,-0.46c0.14,-0.121 0.304,-0.182 0.495,-0.182l7.941,0c0.192,0 0.358,0.06 0.498,0.182c0.14,0.121 0.21,0.274 0.21,0.459l0,1.269c0,0.165 -0.073,0.312 -0.218,0.444c-0.146,0.131 -0.309,0.197 -0.488,0.197l-4.98,0Z" style="fill:#00b6ed;fill-rule:nonzero;"/><path d="M44.769,42.479c0.517,0 0.99,-0.079 1.423,-0.24c0.431,-0.16 0.646,-0.531 0.646,-1.115c0,-0.408 -0.142,-0.719 -0.428,-0.933c-0.286,-0.213 -0.699,-0.321 -1.236,-0.321l-1.38,0l0,2.61l0.117,-0.001l0.858,0Zm2.509,4.564c-0.124,-0.661 -0.379,-1.12 -0.766,-1.378c-0.388,-0.257 -0.867,-0.411 -1.439,-0.459c-0.078,-0.009 -0.174,-0.014 -0.286,-0.014c-0.113,0 -0.208,0.009 -0.286,0.03l-0.017,0.014l0,1.866c0,0.184 -0.02,0.333 -0.059,0.444c-0.04,0.112 -0.145,0.204 -0.319,0.277c-0.174,0.073 -0.446,0.11 -0.816,0.11l-1.565,0c-0.347,0.01 -0.623,-0.046 -0.824,-0.168c-0.202,-0.121 -0.303,-0.289 -0.303,-0.503l0.015,-3.936l0,-5.074c0,-0.145 0.085,-0.274 0.252,-0.386c0.168,-0.111 0.371,-0.168 0.607,-0.168l3.819,0c1.683,-0.01 2.928,0.236 3.735,0.736c0.808,0.5 1.246,1.285 1.313,2.354c0.011,0.097 0.014,0.173 0.007,0.226c-0.005,0.054 -0.007,0.1 -0.007,0.139l0,0.306c-0.056,0.564 -0.227,1.011 -0.514,1.341c-0.286,0.331 -0.664,0.637 -1.134,0.919l0.017,0.014c0.549,0.234 0.986,0.569 1.312,1.006c0.324,0.438 0.547,0.895 0.664,1.371c0.118,0.476 0.165,0.904 0.143,1.282c0,0.166 -0.066,0.298 -0.202,0.394c-0.134,0.097 -0.326,0.146 -0.571,0.146l-2.053,0.001c-0.292,0 -0.479,-0.064 -0.564,-0.19c-0.084,-0.126 -0.129,-0.26 -0.134,-0.402c-0.007,-0.14 -0.015,-0.24 -0.025,-0.298" style="fill:#00b6ed;fill-rule:nonzero;"/><path d="M55.465,40.321l0,1.182l4.745,0c0.179,-0.001 0.34,0.06 0.479,0.181c0.141,0.122 0.211,0.275 0.211,0.459l0,1.268c0,0.166 -0.07,0.314 -0.211,0.445c-0.139,0.131 -0.299,0.197 -0.479,0.197l-4.744,0.001l0,1.297l4.979,0c0.192,0 0.357,0.06 0.497,0.182c0.141,0.121 0.211,0.28 0.211,0.474l0,1.254c0,0.175 -0.07,0.328 -0.211,0.459c-0.14,0.131 -0.305,0.197 -0.496,0.197l-7.941,0c-0.191,0 -0.356,-0.065 -0.497,-0.196c-0.14,-0.132 -0.21,-0.285 -0.21,-0.46l0,-0.044l0,-1.209l0,-6.328l0,-1.268c0,-0.185 0.069,-0.338 0.209,-0.46c0.141,-0.121 0.306,-0.182 0.497,-0.182l7.941,0c0.19,0 0.356,0.061 0.496,0.182c0.141,0.121 0.212,0.275 0.212,0.459l0,1.268c0,0.166 -0.074,0.314 -0.22,0.445c-0.146,0.132 -0.308,0.197 -0.488,0.197l-4.98,0Z" style="fill:#00b6ed;fill-rule:nonzero;"/><path d="M61.77,46.095c0,-0.175 0.101,-0.38 0.303,-0.613l0.623,-0.7c0.179,-0.223 0.321,-0.382 0.429,-0.474c0.106,-0.092 0.221,-0.139 0.344,-0.139c0.101,0 0.224,0.03 0.37,0.088c0.146,0.059 0.348,0.155 0.606,0.291c0.035,0.02 0.32,0.19 0.859,0.511c0.537,0.32 1.21,0.461 2.018,0.422c0.268,-0.009 0.48,-0.075 0.632,-0.196c0.15,-0.122 0.227,-0.27 0.227,-0.445c0,-0.233 -0.135,-0.448 -0.404,-0.642c-0.269,-0.194 -0.651,-0.305 -1.144,-0.335l0.017,0c-0.988,-0.175 -1.757,-0.396 -2.306,-0.663c-0.55,-0.267 -0.942,-0.586 -1.178,-0.955c-0.235,-0.369 -0.375,-0.826 -0.42,-1.371c-0.045,-0.641 0.111,-1.226 0.47,-1.756c0.36,-0.529 0.875,-0.948 1.548,-1.254c0.673,-0.306 1.447,-0.459 2.323,-0.459c0.65,0 1.301,0.082 1.951,0.247c0.538,0.126 1.029,0.294 1.472,0.503c0.443,0.209 0.793,0.45 1.052,0.722c0.156,0.136 0.235,0.262 0.235,0.379c0,0.097 -0.043,0.202 -0.127,0.314c-0.082,0.111 -0.227,0.265 -0.428,0.459l-0.488,0.451c-0.158,0.146 -0.278,0.247 -0.362,0.3c-0.084,0.053 -0.165,0.079 -0.244,0.079c-0.078,0 -0.179,-0.029 -0.303,-0.087c-0.124,-0.058 -0.243,-0.119 -0.362,-0.182c-0.117,-0.063 -0.221,-0.119 -0.311,-0.167c-0.773,-0.429 -1.453,-0.643 -2.035,-0.642c-0.359,0 -0.642,0.075 -0.85,0.226c-0.207,0.151 -0.311,0.333 -0.311,0.547c0,0.214 0.101,0.405 0.302,0.575c0.202,0.171 0.489,0.28 0.859,0.329c1.603,0.213 2.801,0.626 3.592,1.239c0.791,0.612 1.187,1.312 1.187,2.099c0,0.583 -0.211,1.144 -0.631,1.684c-0.42,0.539 -1.004,0.977 -1.749,1.312c-0.747,0.335 -1.58,0.503 -2.5,0.503c-1.502,0 -3.011,-0.456 -4.525,-1.37c-0.495,-0.291 -0.741,-0.569 -0.741,-0.83" style="fill:#00b6ed;fill-rule:nonzero;"/><path d="M31.95,33.949l-0.01,-0.093c-0.012,-0.155 0.001,-0.37 0.044,-0.648c0.185,-0.915 0.498,-1.906 0.935,-2.977l0.119,-0.349c-0.08,0.033 -0.156,0.11 -0.229,0.234c-0.451,0.547 -0.921,1.171 -1.409,1.871c-0.252,0.358 -0.493,0.64 -0.726,0.843c-0.2,0.203 -0.385,0.353 -0.56,0.448c-0.192,0.094 -0.371,0.142 -0.537,0.144c-0.251,0.003 -0.475,-0.07 -0.67,-0.223c-0.198,-0.152 -0.333,-0.358 -0.407,-0.62c-0.049,-0.185 -0.079,-0.332 -0.088,-0.439c-0.019,-0.201 -0.011,-0.394 0.022,-0.581c0.146,-1.375 0.632,-2.656 1.461,-3.839c0.207,-0.296 0.443,-0.532 0.713,-0.705c0.171,-0.126 0.357,-0.19 0.556,-0.191c0.236,0.029 0.414,0.126 0.527,0.294c0.056,0.062 0.088,0.138 0.096,0.23c0.007,0.095 -0.024,0.195 -0.098,0.302c-0.448,0.593 -0.803,1.235 -1.068,1.926c-0.262,0.69 -0.488,1.478 -0.676,2.359c-0.038,0.125 -0.042,0.209 -0.004,0.256c0.098,-0.032 0.206,-0.127 0.326,-0.282c0.61,-0.642 1.32,-1.468 2.13,-2.482c0.389,-0.499 0.691,-0.866 0.903,-1.101l1.504,-1.941c0.162,-0.234 0.363,-0.306 0.606,-0.217c0.256,0.076 0.38,0.26 0.373,0.553c-0.008,0.108 -0.047,0.309 -0.119,0.604c-0.367,1.333 -0.74,2.572 -1.122,3.72c-0.291,0.853 -0.535,1.674 -0.731,2.464l-0.175,0.559c-0.055,0.139 -0.144,0.257 -0.269,0.35c-0.154,0.141 -0.331,0.214 -0.531,0.214c-0.133,0.004 -0.236,-0.012 -0.305,-0.042c-0.31,-0.119 -0.504,-0.333 -0.581,-0.641" style="fill:#11489f;fill-rule:nonzero;"/><path d="M36.7,31.782c0.501,-0.345 0.967,-0.737 1.395,-1.175c0.427,-0.437 0.914,-0.977 1.457,-1.617c0.045,-0.045 0.058,-0.1 0.035,-0.161c-0.06,-0.123 -0.095,-0.281 -0.104,-0.475c-0.009,-0.192 -0.018,-0.342 -0.028,-0.45c-0.023,-0.264 -0.076,-0.471 -0.155,-0.624c-0.268,0.188 -0.775,0.908 -1.521,2.161c-0.747,1.252 -1.139,2.049 -1.175,2.389l0.096,-0.048Zm2.13,2.025c-0.093,-0.114 -0.147,-0.257 -0.162,-0.426c-0.043,-0.479 0.009,-0.912 0.159,-1.301l0.578,-1.373l0.146,-0.327c-0.034,0.002 -0.053,-0.013 -0.055,-0.044l-0.318,0.35c-0.756,0.875 -1.628,1.673 -2.613,2.397c-0.331,0.235 -0.568,0.377 -0.713,0.424c-0.128,0.063 -0.275,0.097 -0.442,0.099c-0.217,0.002 -0.404,-0.061 -0.567,-0.191c-0.161,-0.129 -0.268,-0.308 -0.323,-0.54c-0.02,-0.046 -0.036,-0.115 -0.043,-0.208c-0.008,-0.077 -0.003,-0.169 0.012,-0.278c0.016,-0.108 0.022,-0.186 0.017,-0.232c0.054,-0.34 0.178,-0.728 0.372,-1.162c0.508,-1.212 1.251,-2.425 2.228,-3.642c0.254,-0.327 0.559,-0.623 0.92,-0.891c0.203,-0.157 0.459,-0.276 0.768,-0.357c0.066,-0.017 0.147,-0.025 0.249,-0.027c0.465,-0.005 0.816,0.183 1.051,0.567c0.136,0.23 0.218,0.484 0.243,0.761c0.011,0.139 0.014,0.247 0.003,0.324c0.003,0.032 0.003,0.073 -0.001,0.127c-0.003,0.055 0.007,0.12 0.03,0.197c0.048,-0.032 0.164,-0.137 0.347,-0.316c0.184,-0.18 0.336,-0.364 0.451,-0.55c0.234,-0.374 0.419,-0.646 0.552,-0.819c0.151,-0.187 0.304,-0.326 0.463,-0.422c0.111,-0.064 0.234,-0.096 0.367,-0.097c0.116,-0.002 0.236,0.028 0.359,0.087c0.228,0.138 0.337,0.336 0.327,0.599c0.018,0.185 -0.024,0.388 -0.12,0.605c-0.224,0.497 -0.398,0.869 -0.526,1.117c-0.841,1.786 -1.489,3.232 -1.942,4.334c-0.094,0.248 -0.222,0.493 -0.383,0.735c-0.163,0.241 -0.267,0.392 -0.311,0.454c-0.09,0.109 -0.204,0.188 -0.342,0.236c-0.137,0.047 -0.273,0.057 -0.41,0.029c-0.154,-0.045 -0.278,-0.124 -0.371,-0.239" style="fill:#11489f;fill-rule:nonzero;"/><path d="M43.933,38.024c0.354,-0.327 0.691,-0.749 1.014,-1.262c0.528,-0.795 1.047,-1.804 1.555,-3.031c-0.001,-0.015 0.009,-0.042 0.03,-0.083c0.021,-0.036 0.021,-0.072 0.005,-0.102l-0.103,-0.023c-0.05,0.001 -0.124,0.018 -0.221,0.05c-0.604,0.146 -1.125,0.385 -1.562,0.713c-1.033,0.755 -1.859,1.707 -2.473,2.857c-0.174,0.296 -0.257,0.661 -0.252,1.092c0.018,0.217 0.056,0.362 0.115,0.44c0.055,0.077 0.151,0.113 0.284,0.112c0.133,-0.002 0.249,-0.019 0.345,-0.05c0.457,-0.114 0.878,-0.352 1.263,-0.713m-2.395,1.478c-0.27,-0.235 -0.432,-0.56 -0.486,-0.979c-0.07,-0.569 0.027,-1.103 0.281,-1.601c0.747,-1.353 1.668,-2.422 2.766,-3.208c0.768,-0.549 1.615,-0.861 2.543,-0.934c0.167,-0.002 0.277,-0.073 0.332,-0.213c0.397,-0.978 0.801,-2.133 1.217,-3.467c0.015,-0.014 0.02,-0.054 0.015,-0.115l-0.279,0.259c-0.392,0.453 -0.581,0.67 -0.566,0.654c-0.912,1 -1.596,1.728 -2.058,2.18c-0.213,0.204 -0.538,0.494 -0.972,0.87c-0.204,0.156 -0.401,0.274 -0.593,0.354c-0.146,0.048 -0.286,0.073 -0.419,0.075c-0.332,0.004 -0.622,-0.14 -0.864,-0.43c-0.206,-0.244 -0.342,-0.568 -0.411,-0.967c-0.066,-0.371 -0.035,-0.85 0.098,-1.439c0.356,-1.239 0.924,-2.434 1.704,-3.588c0.092,-0.108 0.152,-0.179 0.184,-0.211c0.042,-0.077 0.096,-0.124 0.162,-0.141c0.158,-0.094 0.287,-0.143 0.386,-0.143c0.118,-0.001 0.221,0.028 0.307,0.089c0.229,0.104 0.353,0.289 0.377,0.55c0.011,0.125 -0.011,0.279 -0.059,0.465c-0.115,0.402 -0.27,0.813 -0.466,1.233c-0.465,1.149 -0.779,2.017 -0.943,2.607c-0.076,0.279 -0.113,0.502 -0.116,0.672c0.084,-0.001 0.153,-0.024 0.207,-0.071c0.054,-0.047 0.089,-0.078 0.104,-0.094c0.469,-0.345 0.895,-0.714 1.277,-1.105c0.694,-0.641 1.662,-1.649 2.907,-3.024l0.639,-0.68c0.218,-0.202 0.384,-0.389 0.501,-0.562l0.065,-0.117c0.225,-0.28 0.467,-0.376 0.725,-0.285c0.154,0.043 0.274,0.131 0.361,0.261c0.087,0.13 0.128,0.28 0.128,0.45c0.013,0.154 -0.019,0.448 -0.097,0.881c-0.113,0.419 -0.355,1.257 -0.727,2.511c-0.284,0.931 -0.56,1.753 -0.832,2.468c-0.04,0.091 -0.059,0.154 -0.057,0.185c0.003,0.046 0.083,0.09 0.239,0.136c0.34,0.103 0.617,0.215 0.829,0.336c0.402,0.213 0.673,0.548 0.815,1.009c0.04,0.077 0.048,0.162 0.022,0.255c0.012,0.139 -0.062,0.225 -0.228,0.259l-0.05,0c-0.1,0.002 -0.196,-0.052 -0.289,-0.159l-0.092,-0.207c-0.098,-0.339 -0.346,-0.583 -0.741,-0.732l-0.078,-0.023c-0.31,-0.119 -0.491,-0.179 -0.54,-0.179c-0.083,0.002 -0.155,0.049 -0.214,0.143c-0.057,0.092 -0.113,0.217 -0.165,0.372c-0.385,0.931 -0.746,1.738 -1.087,2.422c-0.417,0.747 -0.893,1.386 -1.428,1.919c-0.539,0.516 -1.088,0.892 -1.651,1.131c-0.548,0.224 -1.08,0.329 -1.598,0.32c-0.453,-0.025 -0.815,-0.156 -1.085,-0.392" style="fill:#11489f;fill-rule:nonzero;"/><path d="M52.088,31.324c0.503,-0.345 0.969,-0.737 1.396,-1.176c0.427,-0.437 0.914,-0.974 1.457,-1.615c0.045,-0.047 0.057,-0.101 0.035,-0.163c-0.06,-0.123 -0.096,-0.281 -0.105,-0.475c-0.007,-0.191 -0.018,-0.342 -0.027,-0.451c-0.023,-0.261 -0.076,-0.469 -0.156,-0.622c-0.267,0.188 -0.774,0.908 -1.52,2.161c-0.747,1.252 -1.139,2.049 -1.176,2.39l0.096,-0.049Zm2.131,2.025c-0.094,-0.115 -0.147,-0.257 -0.164,-0.428c-0.042,-0.477 0.011,-0.911 0.161,-1.298l0.577,-1.374l0.148,-0.326c-0.034,0 -0.052,-0.014 -0.055,-0.046l-0.318,0.351c-0.758,0.874 -1.628,1.672 -2.615,2.395c-0.33,0.236 -0.568,0.378 -0.711,0.426c-0.129,0.063 -0.277,0.095 -0.443,0.099c-0.216,0.001 -0.404,-0.062 -0.568,-0.19c-0.16,-0.129 -0.268,-0.31 -0.322,-0.54c-0.02,-0.048 -0.036,-0.116 -0.044,-0.21c-0.006,-0.076 -0.002,-0.169 0.013,-0.277c0.016,-0.108 0.021,-0.185 0.017,-0.232c0.053,-0.342 0.177,-0.727 0.372,-1.164c0.508,-1.209 1.251,-2.424 2.227,-3.64c0.254,-0.329 0.56,-0.625 0.921,-0.892c0.203,-0.156 0.459,-0.275 0.768,-0.356c0.066,-0.017 0.149,-0.025 0.248,-0.028c0.467,-0.005 0.817,0.185 1.052,0.567c0.138,0.23 0.218,0.484 0.242,0.762c0.012,0.139 0.013,0.246 0.004,0.325c0.003,0.029 0.003,0.073 -0.001,0.127c-0.003,0.055 0.005,0.119 0.03,0.196c0.047,-0.032 0.164,-0.137 0.347,-0.316c0.185,-0.181 0.334,-0.364 0.452,-0.55c0.233,-0.375 0.417,-0.647 0.551,-0.819c0.149,-0.187 0.305,-0.328 0.464,-0.423c0.11,-0.062 0.233,-0.094 0.366,-0.096c0.118,-0.003 0.237,0.028 0.359,0.088c0.228,0.135 0.338,0.335 0.328,0.599c0.017,0.184 -0.026,0.387 -0.122,0.603c-0.223,0.497 -0.396,0.869 -0.524,1.118c-0.844,1.787 -1.49,3.232 -1.942,4.333c-0.096,0.248 -0.223,0.494 -0.384,0.735c-0.163,0.242 -0.267,0.392 -0.312,0.455c-0.088,0.11 -0.204,0.187 -0.341,0.237c-0.136,0.047 -0.274,0.056 -0.409,0.028c-0.155,-0.044 -0.278,-0.126 -0.372,-0.239" style="fill:#11489f;fill-rule:nonzero;"/><path d="M65.606,25.773c-0.018,-0.202 -0.131,-0.347 -0.34,-0.437c-0.101,-0.029 -0.188,-0.044 -0.253,-0.043c-0.118,0.001 -0.213,0.034 -0.292,0.095l-0.159,0.166c-0.15,0.2 -0.392,0.49 -0.724,0.865c-0.422,0.5 -0.73,0.89 -0.923,1.171c-0.653,0.903 -1.425,1.785 -2.315,2.645c-0.324,0.297 -0.58,0.51 -0.768,0.635c-0.018,0 -0.044,0.021 -0.083,0.06c-0.039,0.038 -0.084,0.043 -0.137,0.013l-0.006,-0.07c-0.003,-0.046 0.005,-0.146 0.024,-0.302c0.257,-1.223 0.651,-2.333 1.18,-3.326c0.08,-0.218 0.197,-0.405 0.35,-0.561c0.025,-0.093 0.089,-0.125 0.19,-0.095l-0.019,0.625c0.022,0.232 0.053,0.401 0.096,0.509c0.102,0.201 0.227,0.299 0.377,0.296l0.049,0c0.184,-0.002 0.291,-0.119 0.319,-0.352c0.008,-0.107 0.026,-0.235 0.055,-0.383c0.028,-0.146 0.046,-0.274 0.053,-0.382c0.047,-0.218 0.063,-0.402 0.05,-0.556l-0.009,-0.116c-0.044,-0.294 -0.169,-0.519 -0.374,-0.679c-0.205,-0.16 -0.45,-0.238 -0.734,-0.234c-0.117,0.001 -0.208,0.01 -0.273,0.026c-0.197,0.049 -0.379,0.136 -0.552,0.262c-0.189,0.125 -0.374,0.282 -0.558,0.47c-1.024,1.233 -1.643,2.607 -1.86,4.122c-0.032,0.202 -0.037,0.411 -0.018,0.628c0.007,0.091 0.038,0.246 0.09,0.46c0.093,0.293 0.246,0.524 0.463,0.69c0.214,0.167 0.464,0.25 0.746,0.246c0.233,-0.003 0.453,-0.06 0.661,-0.17c0.222,-0.126 0.409,-0.269 0.561,-0.424l0.618,-0.657c0.363,-0.421 0.551,-0.638 0.567,-0.655c0.179,-0.234 0.276,-0.359 0.292,-0.374c0.016,-0.015 0.034,-0.039 0.057,-0.07c0.022,-0.032 0.057,-0.056 0.106,-0.071c0.002,0.045 0,0.088 -0.015,0.127c-0.013,0.038 -0.027,0.067 -0.042,0.081c-0.517,1.119 -0.95,2.287 -1.301,3.503c-0.403,1.403 -0.899,2.824 -1.01,4.281c-0.041,0.528 -0.073,1.187 0.315,1.645c1.053,1.247 1.522,-1.295 1.622,-1.765c0.38,-1.793 0.462,-2.45 1.058,-4.197c0.208,-0.652 0.456,-1.345 0.739,-2.082c0.285,-0.737 0.468,-1.214 0.549,-1.431l0.49,-1.234l0.987,-2.399c0.08,-0.217 0.117,-0.379 0.107,-0.487l-0.006,-0.069Z" style="fill:#11489f;fill-rule:nonzero;"/><path d="M68.448,32.568l-0.008,-0.092c-0.014,-0.156 0,-0.372 0.042,-0.65c0.186,-0.913 0.498,-1.906 0.936,-2.977l0.118,-0.349c-0.079,0.033 -0.155,0.111 -0.229,0.234c-0.452,0.547 -0.921,1.171 -1.41,1.872c-0.251,0.359 -0.492,0.639 -0.724,0.843c-0.199,0.202 -0.386,0.352 -0.561,0.447c-0.192,0.096 -0.371,0.143 -0.538,0.145c-0.248,0.003 -0.471,-0.071 -0.67,-0.223c-0.197,-0.154 -0.332,-0.358 -0.405,-0.621c-0.05,-0.184 -0.08,-0.331 -0.089,-0.439c-0.018,-0.201 -0.009,-0.394 0.024,-0.58c0.145,-1.376 0.629,-2.656 1.459,-3.84c0.208,-0.295 0.445,-0.531 0.713,-0.705c0.173,-0.125 0.359,-0.189 0.558,-0.19c0.235,0.027 0.412,0.125 0.526,0.294c0.056,0.061 0.088,0.137 0.095,0.229c0.01,0.095 -0.025,0.196 -0.098,0.303c-0.448,0.592 -0.803,1.236 -1.065,1.924c-0.264,0.692 -0.491,1.477 -0.678,2.361c-0.039,0.124 -0.042,0.208 -0.004,0.255c0.097,-0.033 0.207,-0.126 0.326,-0.282c0.609,-0.641 1.319,-1.468 2.13,-2.482c0.388,-0.499 0.69,-0.866 0.902,-1.101l1.503,-1.941c0.162,-0.233 0.364,-0.305 0.607,-0.215c0.257,0.075 0.381,0.257 0.374,0.551c-0.006,0.109 -0.046,0.309 -0.121,0.605c-0.367,1.332 -0.739,2.572 -1.119,3.719c-0.292,0.854 -0.535,1.675 -0.733,2.465l-0.174,0.559c-0.056,0.138 -0.145,0.256 -0.269,0.349c-0.155,0.143 -0.331,0.214 -0.532,0.216c-0.132,0.002 -0.233,-0.013 -0.304,-0.042c-0.31,-0.12 -0.505,-0.335 -0.582,-0.642" style="fill:#11489f;fill-rule:nonzero;"/><path d="M74.554,23.767l-0.04,-0.161c-0.007,-0.095 0,-0.193 0.024,-0.303c0.024,-0.107 0.041,-0.185 0.053,-0.232c0.051,-0.186 0.138,-0.322 0.265,-0.408c0.126,-0.086 0.272,-0.116 0.443,-0.088c0.168,0.014 0.307,0.087 0.419,0.217c0.113,0.13 0.177,0.294 0.195,0.495c-0.008,0.294 -0.078,0.541 -0.21,0.744c-0.181,0.219 -0.391,0.299 -0.629,0.239c-0.274,-0.059 -0.445,-0.227 -0.52,-0.503m-2.402,6.725l-0.042,-0.186c-0.013,-0.509 0.034,-0.903 0.145,-1.183c0.345,-0.992 0.631,-1.722 0.855,-2.188c0.225,-0.467 0.451,-0.847 0.675,-1.143c0.118,-0.157 0.228,-0.258 0.321,-0.306c0.077,-0.061 0.184,-0.094 0.317,-0.096c0.134,-0.002 0.255,0.044 0.364,0.135c0.106,0.092 0.176,0.205 0.205,0.345l0.01,0.116c0.013,0.154 0.015,0.262 0.004,0.323c-0.023,0.125 -0.051,0.278 -0.086,0.465c-0.031,0.186 -0.069,0.333 -0.109,0.441l-0.833,2.721c-0.08,0.233 -0.287,0.536 -0.62,0.911c-0.122,0.126 -0.275,0.188 -0.459,0.192c-0.064,0 -0.15,-0.014 -0.253,-0.044c-0.257,-0.074 -0.421,-0.242 -0.494,-0.503" style="fill:#11489f;fill-rule:nonzero;"/><path d="M74.876,33.823c-0.148,-0.152 -0.259,-0.317 -0.332,-0.493c-0.074,-0.177 -0.118,-0.334 -0.13,-0.475c-0.041,-0.446 -0.008,-0.918 0.099,-1.413c0.139,-0.496 0.297,-0.984 0.47,-1.466c0.737,-2.032 1.685,-4.383 2.848,-7.054l0.54,-1.258c0.854,-2.002 1.481,-3.4 1.877,-4.193c0.055,-0.124 0.156,-0.311 0.301,-0.559c0.102,-0.156 0.218,-0.266 0.345,-0.329c0.097,-0.048 0.193,-0.072 0.294,-0.074c0.114,0 0.224,0.034 0.322,0.101c0.097,0.069 0.168,0.165 0.213,0.287c0.021,0.046 0.036,0.116 0.044,0.209c0.006,0.093 0.006,0.162 -0.006,0.206c-0.015,0.404 -0.119,0.915 -0.315,1.535c-0.101,0.371 -0.285,0.915 -0.555,1.629l-0.183,0.465c-1.187,2.795 -2.068,4.89 -2.642,6.288c-0.82,2.048 -1.409,3.662 -1.771,4.839l-0.233,0.768c-0.037,0.14 -0.049,0.278 -0.039,0.418c0.009,0.092 0.024,0.168 0.047,0.23c0.068,0.2 0.03,0.367 -0.117,0.499c-0.146,0.133 -0.332,0.179 -0.551,0.134c-0.153,-0.028 -0.329,-0.127 -0.526,-0.294" style="fill:#11489f;fill-rule:nonzero;"/><path d="M29.213,21.212c-0.065,-0.529 -0.27,-0.927 -0.61,-1.183c-0.281,-0.213 -0.645,-0.326 -1.081,-0.337c-0.095,-0.003 -0.193,0.001 -0.305,0.008l-0.298,0.051c-0.27,0.05 -0.637,0.174 -1.095,0.368c-1.239,0.59 -2.257,1.374 -3.028,2.333c-1.884,2.416 -3.069,4.991 -3.514,7.653c-0.2,1.315 -0.242,2.467 -0.122,3.429c0.145,0.953 0.523,2.008 1.521,2.557c1.667,0.917 3.812,0.109 5.042,-0.928c0.348,-0.294 0.668,-0.633 0.931,-0.988c0.262,-0.353 0.484,-0.756 0.633,-1.158c0.312,-0.851 0.39,-1.905 0.008,-2.764c-0.033,-0.071 -0.226,-0.74 -0.258,-0.74c0.094,-0.004 0.326,-0.045 0.428,-0.057c0.176,-0.013 0.32,-0.085 0.418,-0.208c0.115,-0.145 0.147,-0.348 0.086,-0.542c-0.164,-0.523 -0.797,-0.542 -1.015,-0.547c-0.073,-0.001 -0.146,0 -0.214,0.001c-0.12,0.004 -0.276,0.004 -0.453,0.004c-0.66,0.002 -1.562,0.003 -1.971,0.163c-0.334,0.129 -0.539,0.428 -0.48,0.694c0.026,0.113 0.139,0.379 0.653,0.42c1.212,0.096 1.756,1.437 1.738,2.192c-0.022,0.954 -0.508,2.021 -1.343,2.633c-0.585,0.43 -1.524,0.913 -2.334,0.842c-1.741,-0.155 -1.477,-2.301 -1.384,-3.309l0.016,-0.187c0.156,-1.774 0.602,-3.425 1.332,-4.903c0.735,-1.553 1.526,-2.852 2.347,-3.858c0.529,-0.674 1.161,-1.22 1.877,-1.623c0.404,-0.227 1.183,-0.635 1.36,0.019c0.023,0.089 0.042,0.217 0.057,0.381c0.026,0.297 -0.006,0.583 -0.094,0.853c-0.127,0.399 -0.938,1.301 -0.325,1.651c0.026,0.011 0.563,0.228 0.894,-0.352c0.076,-0.119 0.149,-0.239 0.217,-0.364c0.363,-0.681 0.486,-1.423 0.366,-2.204" style="fill:#11489f;fill-rule:nonzero;"/><path d="M33.267,23.213c-0.048,0 -0.088,-0.015 -0.123,-0.045c-0.035,-0.03 -0.053,-0.068 -0.053,-0.114l0,-2.208c0,-0.046 0.018,-0.084 0.053,-0.116c0.035,-0.03 0.075,-0.046 0.123,-0.046l0.562,0c0.047,0 0.087,0.016 0.123,0.046c0.034,0.032 0.052,0.07 0.052,0.116l0,1.616l1.145,0c0.053,0 0.098,0.015 0.135,0.044c0.037,0.028 0.056,0.065 0.056,0.108l0,0.454c0,0.041 -0.019,0.076 -0.056,0.105c-0.037,0.029 -0.082,0.044 -0.135,0.044l-1.773,0l-0.109,-0.004Z" style="fill:#00b6ed;fill-rule:nonzero;"/><path d="M38.602,21.936c0,-0.104 -0.03,-0.199 -0.091,-0.285c-0.061,-0.087 -0.142,-0.156 -0.244,-0.208c-0.101,-0.052 -0.21,-0.077 -0.326,-0.077c-0.122,0 -0.234,0.025 -0.335,0.077c-0.101,0.052 -0.181,0.121 -0.239,0.208c-0.059,0.086 -0.087,0.181 -0.087,0.285c0,0.103 0.028,0.199 0.087,0.287c0.058,0.087 0.138,0.157 0.239,0.209c0.101,0.052 0.213,0.078 0.335,0.078c0.116,0 0.225,-0.026 0.326,-0.078c0.102,-0.052 0.183,-0.122 0.244,-0.209c0.061,-0.088 0.091,-0.184 0.091,-0.287m-2.172,0.032c0,-0.238 0.068,-0.457 0.206,-0.66c0.137,-0.202 0.322,-0.363 0.555,-0.481c0.234,-0.12 0.488,-0.18 0.762,-0.18c0.275,0 0.53,0.06 0.764,0.18c0.235,0.118 0.421,0.279 0.558,0.481c0.137,0.203 0.206,0.422 0.206,0.66c0,0.238 -0.069,0.459 -0.206,0.66c-0.137,0.203 -0.323,0.363 -0.558,0.482c-0.234,0.119 -0.489,0.179 -0.764,0.179c-0.274,0 -0.528,-0.06 -0.762,-0.179c-0.233,-0.119 -0.418,-0.279 -0.555,-0.482c-0.138,-0.201 -0.206,-0.422 -0.206,-0.66" style="fill:#00b6ed;fill-rule:nonzero;"/><path d="M42.812,23.086l0,-2.269c0,-0.033 0.014,-0.062 0.044,-0.088c0.029,-0.025 0.065,-0.039 0.105,-0.039l0.646,0c0.028,0 0.057,0.006 0.088,0.017c0.03,0.011 0.051,0.023 0.061,0.034l0.775,0.737l0.813,-0.733c0.033,-0.026 0.069,-0.042 0.109,-0.046c0.041,-0.006 0.089,-0.009 0.144,-0.009l0.562,0c0.039,0 0.073,0.014 0.102,0.039c0.03,0.026 0.044,0.055 0.044,0.088l0,2.269c0,0.036 -0.014,0.068 -0.041,0.093c-0.028,0.025 -0.063,0.038 -0.105,0.038l-0.558,0c-0.042,0 -0.078,-0.013 -0.11,-0.038c-0.033,-0.025 -0.048,-0.057 -0.048,-0.093l0,-1.327l-0.669,0.736c-0.057,0.065 -0.127,0.097 -0.214,0.097c-0.04,0 -0.081,-0.007 -0.119,-0.023c-0.037,-0.016 -0.067,-0.036 -0.089,-0.063l-0.687,-0.747l0.005,1.327c0,0.036 -0.015,0.068 -0.042,0.093c-0.028,0.025 -0.062,0.038 -0.103,0.038l-0.564,0c-0.04,0 -0.076,-0.014 -0.105,-0.041c-0.03,-0.026 -0.044,-0.056 -0.044,-0.09" style="fill:#00b6ed;fill-rule:nonzero;"/><path d="M48.636,21.337l0,0.292l1.173,0c0.046,0 0.085,0.015 0.119,0.045c0.035,0.031 0.052,0.068 0.052,0.114l0,0.314c0,0.04 -0.017,0.077 -0.052,0.11c-0.034,0.032 -0.073,0.048 -0.119,0.048l-1.173,0l0,0.322l1.233,0c0.047,0 0.087,0.014 0.122,0.044c0.035,0.031 0.052,0.069 0.052,0.118l0,0.31c0,0.043 -0.017,0.081 -0.052,0.114c-0.035,0.032 -0.075,0.049 -0.122,0.049l-1.965,0c-0.048,0 -0.089,-0.017 -0.123,-0.049c-0.035,-0.033 -0.052,-0.071 -0.052,-0.114l0,-0.011l0,-0.299l0,-1.566l0,-0.314c0,-0.046 0.017,-0.084 0.052,-0.113c0.034,-0.03 0.075,-0.046 0.123,-0.046l1.965,0c0.047,0 0.087,0.016 0.122,0.046c0.035,0.029 0.052,0.067 0.052,0.113l0,0.314c0,0.041 -0.018,0.078 -0.055,0.11c-0.035,0.032 -0.075,0.049 -0.119,0.049l-1.233,0Z" style="fill:#00b6ed;fill-rule:nonzero;"/><path d="M50.638,23.974l0,-0.253c0,-0.052 0.019,-0.107 0.06,-0.164c0.041,-0.056 0.096,-0.084 0.164,-0.084c0.193,0 0.336,-0.037 0.43,-0.111c0.093,-0.073 0.152,-0.156 0.173,-0.248c0.023,-0.093 0.036,-0.202 0.039,-0.327l0.004,-0.086l0,-1.855c0,-0.05 0.014,-0.088 0.042,-0.114c0.027,-0.025 0.059,-0.038 0.096,-0.038l0.66,0c0.034,0 0.065,0.015 0.092,0.042c0.028,0.028 0.042,0.066 0.042,0.114l-0.017,2.063c0,0.003 -0.001,0.004 -0.001,0.004c0,0.471 -0.138,0.803 -0.419,0.994c-0.279,0.191 -0.609,0.29 -0.987,0.298c-0.118,0.002 -0.211,-0.017 -0.277,-0.058c-0.064,-0.041 -0.098,-0.101 -0.101,-0.177" style="fill:#00b6ed;fill-rule:nonzero;"/><path d="M55.959,21.936c0,-0.104 -0.03,-0.199 -0.091,-0.285c-0.061,-0.087 -0.142,-0.156 -0.244,-0.208c-0.101,-0.052 -0.21,-0.077 -0.327,-0.077c-0.122,0 -0.233,0.025 -0.335,0.077c-0.101,0.052 -0.18,0.121 -0.238,0.208c-0.059,0.086 -0.089,0.181 -0.089,0.285c0,0.103 0.03,0.199 0.089,0.287c0.058,0.087 0.137,0.157 0.238,0.209c0.102,0.052 0.213,0.078 0.335,0.078c0.117,0 0.226,-0.026 0.327,-0.078c0.102,-0.052 0.183,-0.122 0.244,-0.209c0.061,-0.088 0.091,-0.184 0.091,-0.287m-2.172,0.032c0,-0.238 0.068,-0.457 0.206,-0.66c0.137,-0.202 0.322,-0.363 0.555,-0.481c0.234,-0.12 0.488,-0.18 0.762,-0.18c0.275,0 0.53,0.06 0.763,0.18c0.236,0.118 0.422,0.279 0.559,0.481c0.137,0.203 0.206,0.422 0.206,0.66c0,0.238 -0.069,0.459 -0.206,0.66c-0.137,0.203 -0.323,0.363 -0.559,0.482c-0.233,0.119 -0.488,0.179 -0.763,0.179c-0.274,0 -0.528,-0.06 -0.762,-0.179c-0.233,-0.119 -0.418,-0.279 -0.555,-0.482c-0.138,-0.201 -0.206,-0.422 -0.206,-0.66" style="fill:#00b6ed;fill-rule:nonzero;"/><path d="M59.172,21.871c0.126,0 0.243,-0.02 0.351,-0.06c0.107,-0.04 0.16,-0.132 0.16,-0.276c0,-0.101 -0.035,-0.178 -0.106,-0.23c-0.071,-0.053 -0.172,-0.08 -0.306,-0.08l-0.342,0l0,0.646l0.243,0Zm0.619,1.129c-0.03,-0.164 -0.093,-0.278 -0.189,-0.342c-0.096,-0.063 -0.215,-0.1 -0.356,-0.113c-0.019,-0.002 -0.043,-0.003 -0.07,-0.003c-0.028,0 -0.052,0.002 -0.071,0.007l-0.005,0.004l0,0.462c0,0.045 -0.005,0.082 -0.014,0.11c-0.01,0.027 -0.036,0.049 -0.079,0.068c-0.044,0.018 -0.111,0.027 -0.202,0.027l-0.388,0c-0.086,0.002 -0.154,-0.012 -0.203,-0.042c-0.05,-0.029 -0.075,-0.071 -0.075,-0.124l0.004,-0.974l0,-1.255c0,-0.037 0.021,-0.068 0.062,-0.096c0.042,-0.028 0.091,-0.041 0.15,-0.041l0.945,0c0.416,-0.003 0.724,0.058 0.924,0.182c0.201,0.123 0.309,0.318 0.325,0.582c0.002,0.024 0.003,0.043 0.001,0.056c-0.001,0.014 -0.001,0.025 -0.001,0.034l0,0.076c-0.014,0.14 -0.056,0.25 -0.127,0.332c-0.07,0.082 -0.164,0.158 -0.282,0.227l0.005,0.004c0.136,0.058 0.244,0.141 0.325,0.249c0.08,0.109 0.135,0.222 0.165,0.339c0.029,0.118 0.04,0.223 0.035,0.317c0,0.042 -0.017,0.074 -0.05,0.097c-0.033,0.025 -0.081,0.037 -0.141,0.037l-0.509,0c-0.072,0 -0.118,-0.015 -0.139,-0.047c-0.021,-0.031 -0.032,-0.064 -0.034,-0.099c-0.002,-0.035 -0.003,-0.059 -0.006,-0.074" style="fill:#00b6ed;fill-rule:nonzero;"/><path d="M65.37,22.441c0.092,0 0.178,-0.023 0.256,-0.069c0.08,-0.045 0.143,-0.109 0.192,-0.189c0.047,-0.081 0.073,-0.17 0.073,-0.265c0,-0.094 -0.024,-0.181 -0.071,-0.26c-0.047,-0.08 -0.111,-0.143 -0.19,-0.19c-0.078,-0.046 -0.164,-0.069 -0.255,-0.069l-0.388,0c-0.02,0 -0.035,0.005 -0.048,0.017c-0.012,0.012 -0.019,0.027 -0.019,0.047l0,0.913c0,0.019 0.007,0.034 0.019,0.047c0.013,0.012 0.028,0.018 0.048,0.018l0.383,0Zm-1.316,0.617l0,-2.208c0,-0.044 0.019,-0.08 0.054,-0.112c0.036,-0.032 0.079,-0.048 0.13,-0.048l1.124,0c0.264,0 0.511,0.058 0.743,0.173c0.231,0.114 0.417,0.267 0.553,0.461c0.138,0.194 0.207,0.404 0.207,0.63c0,0.226 -0.07,0.436 -0.208,0.629c-0.139,0.194 -0.326,0.348 -0.559,0.462c-0.233,0.114 -0.481,0.172 -0.745,0.172l-1.115,0c-0.051,0 -0.094,-0.016 -0.13,-0.048c-0.035,-0.031 -0.054,-0.068 -0.054,-0.111" style="fill:#00b6ed;fill-rule:nonzero;"/><path d="M69.036,21.337l0,0.292l1.175,0c0.044,0 0.084,0.015 0.119,0.045c0.034,0.031 0.052,0.068 0.052,0.114l0,0.314c0,0.04 -0.018,0.077 -0.052,0.11c-0.035,0.032 -0.075,0.048 -0.119,0.048l-1.175,0l0,0.322l1.234,0c0.046,0 0.087,0.014 0.123,0.044c0.033,0.031 0.051,0.069 0.051,0.118l0,0.31c0,0.043 -0.018,0.081 -0.051,0.114c-0.036,0.032 -0.077,0.049 -0.123,0.049l-1.966,0c-0.047,0 -0.088,-0.017 -0.123,-0.049c-0.034,-0.033 -0.052,-0.071 -0.052,-0.114l0,-0.011l0,-0.299l0,-1.566l0,-0.314c0,-0.046 0.018,-0.084 0.052,-0.113c0.035,-0.03 0.076,-0.046 0.123,-0.046l1.966,0c0.046,0 0.087,0.016 0.123,0.046c0.033,0.029 0.051,0.067 0.051,0.113l0,0.314c0,0.041 -0.018,0.078 -0.054,0.11c-0.036,0.032 -0.077,0.049 -0.12,0.049l-1.234,0Z" style="fill:#00b6ed;fill-rule:nonzero;"/></svg>